<svg width="54" height="67" viewBox="0 0 54 67" fill="none" xmlns="http://www.w3.org/2000/svg">
<circle cx="27" cy="27" r="27" fill="#9AC70D"/>
<circle cx="27" cy="25" r="16" fill="#F74012"/>
<circle cx="31" cy="20" r="7" fill="#D41E36"/>
<path d="M21.6562 58.3125V58.8398L19.7852 64H18.8242L20.6992 59.0781H18.2969V58.3125H21.6562ZM25.832 61.5508L24.0898 58.3125H25.2383L26.2891 60.6836H27.1914L27.0508 61.5508H25.832ZM26.293 61.4219L25.1719 64H23.9961L25.5859 60.75L26.293 61.4219ZM27.7266 58.3125V64H26.7812V58.3125H27.7266ZM30.3828 58.3125L28.6562 61.5508H27.4609L27.3164 60.6836H28.2031L29.2344 58.3125H30.3828ZM29.3008 64L28.1992 61.4219L28.9062 60.75L30.4766 64H29.3008ZM32.0625 58.3125V64H31.1133V58.3125H32.0625ZM34.9023 58.3125L33.0039 61.5664H31.7891L31.6523 60.6914H32.4727L33.7461 58.3125H34.9023ZM33.9141 64L32.5 61.4102L33.1094 60.6445L35.0508 64H33.9141Z" fill="#3F8D5F"/>
</svg>
