<svg width="35" height="36" viewBox="0 0 35 36" fill="none" xmlns="http://www.w3.org/2000/svg">
<rect x="1.5" y="2" width="32" height="32" rx="6.5" stroke="#74C6C9" stroke-width="3"/>
<path d="M15.5341 22.3693V22.1477C15.5398 21.1193 15.6364 20.3011 15.8239 19.6932C16.017 19.0852 16.2898 18.5966 16.642 18.2273C16.9943 17.8523 17.4233 17.5085 17.929 17.196C18.2756 16.9801 18.5852 16.7443 18.858 16.4886C19.1364 16.2273 19.3551 15.9375 19.5142 15.6193C19.6733 15.2955 19.7528 14.9347 19.7528 14.5369C19.7528 14.0881 19.6477 13.6989 19.4375 13.3693C19.2273 13.0398 18.9432 12.7841 18.5852 12.6023C18.233 12.4205 17.8381 12.3295 17.4006 12.3295C16.9972 12.3295 16.6136 12.4176 16.25 12.5938C15.892 12.7642 15.5938 13.0256 15.3551 13.3778C15.1222 13.7244 14.9915 14.1648 14.9631 14.6989H11.929C11.9574 13.6193 12.2188 12.7159 12.7131 11.9886C13.2131 11.2614 13.8722 10.7159 14.6903 10.3523C15.5142 9.98864 16.4233 9.80682 17.4176 9.80682C18.5028 9.80682 19.4574 9.99716 20.2812 10.3778C21.1108 10.7585 21.7557 11.3011 22.2159 12.0057C22.6818 12.7045 22.9148 13.5341 22.9148 14.4943C22.9148 15.142 22.8097 15.7216 22.5994 16.233C22.3949 16.7443 22.1023 17.1989 21.7216 17.5966C21.3409 17.9943 20.8892 18.3494 20.3665 18.6619C19.9063 18.946 19.5284 19.2415 19.233 19.5483C18.9432 19.8551 18.7273 20.2159 18.5852 20.6307C18.4489 21.0398 18.3778 21.5455 18.3722 22.1477V22.3693H15.5341ZM17.017 27.6875C16.5057 27.6875 16.0653 27.5057 15.696 27.142C15.3267 26.7784 15.142 26.3352 15.142 25.8125C15.142 25.3011 15.3267 24.8636 15.696 24.5C16.0653 24.1364 16.5057 23.9545 17.017 23.9545C17.5227 23.9545 17.9602 24.1364 18.3295 24.5C18.7045 24.8636 18.892 25.3011 18.892 25.8125C18.892 26.1591 18.804 26.4744 18.6278 26.7585C18.4574 27.0426 18.2301 27.2699 17.946 27.4403C17.6676 27.6051 17.358 27.6875 17.017 27.6875Z" fill="#74C6C9"/>
</svg>
