<svg width="74" height="62" viewBox="0 0 74 62" fill="none" xmlns="http://www.w3.org/2000/svg">
<path d="M9.3457 12.6016L4.18945 31H0.46875L7.23633 9.67188H9.55078L9.3457 12.6016ZM13.4619 31L8.29102 12.6016L8.04199 9.67188H10.4004L17.1973 31H13.4619ZM13.5498 23.0752V26.0635H3.61816V23.0752H13.5498ZM24.9756 28.4365C25.415 28.4365 25.8057 28.3438 26.1475 28.1582C26.499 27.9727 26.7773 27.6846 26.9824 27.2939C27.1875 26.8936 27.2998 26.376 27.3193 25.7412H30.5273C30.5078 26.8643 30.249 27.8457 29.751 28.6855C29.2529 29.5156 28.5889 30.1602 27.7588 30.6191C26.9385 31.0684 26.0254 31.293 25.0195 31.293C23.9746 31.293 23.0615 31.127 22.2803 30.7949C21.5088 30.4531 20.8691 29.96 20.3613 29.3154C19.8535 28.6709 19.4727 27.8896 19.2188 26.9717C18.9746 26.0439 18.8525 24.9844 18.8525 23.793V22.3574C18.8525 21.1758 18.9746 20.1211 19.2188 19.1934C19.4727 18.2656 19.8535 17.4795 20.3613 16.835C20.8691 16.1904 21.5088 15.7021 22.2803 15.3701C23.0518 15.0283 23.96 14.8574 25.0049 14.8574C26.1182 14.8574 27.0801 15.0918 27.8906 15.5605C28.7109 16.0195 29.3506 16.6934 29.8096 17.582C30.2686 18.4707 30.5078 19.5596 30.5273 20.8486H27.3193C27.2998 20.165 27.1973 19.5938 27.0117 19.1348C26.8262 18.666 26.5625 18.3145 26.2207 18.0801C25.8887 17.8457 25.4688 17.7285 24.9609 17.7285C24.4043 17.7285 23.9453 17.8359 23.584 18.0508C23.2324 18.2559 22.959 18.5586 22.7637 18.959C22.5781 19.3594 22.4463 19.8477 22.3682 20.4238C22.2998 20.9902 22.2656 21.6348 22.2656 22.3574V23.793C22.2656 24.5352 22.2998 25.1943 22.3682 25.7705C22.4365 26.3369 22.5635 26.8203 22.749 27.2207C22.9443 27.6211 23.2227 27.9238 23.584 28.1289C23.9453 28.334 24.4092 28.4365 24.9756 28.4365ZM39.7559 15.1504V31H36.3281V15.1504H39.7559ZM43.9453 15.1504V17.9922H32.1826V15.1504H43.9453ZM49.834 18.1973V37.0938H46.4355V15.1504H49.5557L49.834 18.1973ZM58.3594 22.4453V23.7051C58.3594 24.9453 58.2471 26.0391 58.0225 26.9863C57.7979 27.9336 57.4658 28.7295 57.0264 29.374C56.5967 30.0088 56.0645 30.4873 55.4297 30.8096C54.7949 31.1318 54.0527 31.293 53.2031 31.293C52.4023 31.293 51.7041 31.1172 51.1084 30.7656C50.5225 30.4141 50.0293 29.9209 49.6289 29.2861C49.2285 28.6514 48.9062 27.8994 48.6621 27.0303C48.4277 26.1514 48.2568 25.1943 48.1494 24.1592V22.2256C48.2568 21.1318 48.4229 20.1357 48.6475 19.2373C48.8818 18.3291 49.1992 17.5479 49.5996 16.8936C50.0098 16.2393 50.5078 15.7363 51.0938 15.3848C51.6797 15.0332 52.3779 14.8574 53.1885 14.8574C54.0381 14.8574 54.7852 15.0088 55.4297 15.3115C56.0742 15.6143 56.6113 16.0781 57.041 16.7031C57.4805 17.3281 57.8076 18.1191 58.0225 19.0762C58.2471 20.0234 58.3594 21.1465 58.3594 22.4453ZM54.9463 23.7051V22.4453C54.9463 21.6348 54.8926 20.9365 54.7852 20.3506C54.6875 19.7549 54.5215 19.2666 54.2871 18.8857C54.0625 18.5049 53.7744 18.2217 53.4229 18.0361C53.0811 17.8506 52.6562 17.7578 52.1484 17.7578C51.6992 17.7578 51.3037 17.8506 50.9619 18.0361C50.6201 18.2217 50.332 18.4805 50.0977 18.8125C49.8633 19.1348 49.6777 19.5205 49.541 19.9697C49.4043 20.4092 49.3164 20.8877 49.2773 21.4053V24.9941C49.3652 25.6191 49.5117 26.1953 49.7168 26.7227C49.9219 27.2402 50.2197 27.6553 50.6104 27.9678C51.0107 28.2803 51.5332 28.4365 52.1777 28.4365C52.6758 28.4365 53.1006 28.3389 53.4521 28.1436C53.8037 27.9482 54.0869 27.6553 54.3018 27.2646C54.5264 26.874 54.6875 26.3857 54.7852 25.7998C54.8926 25.2041 54.9463 24.5059 54.9463 23.7051ZM68.5986 27.7773V19.8818C68.5986 19.335 68.5205 18.8955 68.3643 18.5635C68.2178 18.2314 67.998 17.9922 67.7051 17.8457C67.4219 17.6895 67.0654 17.6113 66.6357 17.6113C66.1865 17.6113 65.8057 17.7041 65.4932 17.8896C65.1904 18.0752 64.9609 18.3291 64.8047 18.6514C64.6484 18.9639 64.5703 19.3252 64.5703 19.7354H61.1572C61.1572 19.1006 61.2842 18.4902 61.5381 17.9043C61.8018 17.3184 62.1777 16.7959 62.666 16.3369C63.1543 15.8779 63.7451 15.5166 64.4385 15.2529C65.1318 14.9893 65.9033 14.8574 66.7529 14.8574C67.7686 14.8574 68.6719 15.0283 69.4629 15.3701C70.2539 15.7021 70.874 16.2441 71.3232 16.9961C71.7822 17.7383 72.0117 18.7148 72.0117 19.9258V27.3232C72.0117 28.0557 72.0557 28.71 72.1436 29.2861C72.2412 29.8525 72.373 30.3457 72.5391 30.7656V31H69.0674C68.9111 30.6191 68.7939 30.1309 68.7158 29.5352C68.6377 28.9395 68.5986 28.3535 68.5986 27.7773ZM69.0527 21.3467L69.0674 23.5586H67.4268C66.9385 23.5586 66.499 23.627 66.1084 23.7637C65.7178 23.8906 65.3857 24.0762 65.1123 24.3203C64.8486 24.5547 64.6436 24.8428 64.4971 25.1846C64.3604 25.5264 64.292 25.9023 64.292 26.3125C64.292 26.8105 64.3604 27.2158 64.4971 27.5283C64.6436 27.8408 64.8535 28.0752 65.127 28.2314C65.4102 28.3779 65.752 28.4512 66.1523 28.4512C66.6992 28.4512 67.1729 28.334 67.5732 28.0996C67.9834 27.8555 68.2959 27.5625 68.5107 27.2207C68.7354 26.8789 68.8232 26.5664 68.7744 26.2832L69.5508 27.7041C69.4727 28.0752 69.3262 28.4658 69.1113 28.876C68.9062 29.2861 68.6377 29.6768 68.3057 30.0479C67.9736 30.4189 67.5732 30.7217 67.1045 30.9561C66.6357 31.1807 66.0938 31.293 65.4785 31.293C64.5898 31.293 63.7988 31.1074 63.1055 30.7363C62.4121 30.3652 61.8652 29.833 61.4648 29.1396C61.0742 28.4365 60.8789 27.5967 60.8789 26.6201C60.8789 25.8291 61.0107 25.1113 61.2744 24.4668C61.5381 23.8223 61.9287 23.2705 62.4463 22.8115C62.9639 22.3428 63.6133 21.9814 64.3945 21.7275C65.1855 21.4736 66.1084 21.3467 67.1631 21.3467H69.0527Z" fill="#0A4567"/>
<path d="M24.3311 52.3857L23.0596 52.0576L23.5244 47.0469H28.1113V48.4756H24.8438L24.6318 50.875C24.7594 50.7839 24.9303 50.695 25.1445 50.6084C25.3587 50.5173 25.6003 50.4717 25.8691 50.4717C26.2702 50.4717 26.6279 50.5492 26.9424 50.7041C27.2568 50.859 27.5234 51.0824 27.7422 51.374C27.9609 51.6611 28.125 52.0098 28.2344 52.4199C28.3483 52.8301 28.4053 53.2949 28.4053 53.8145C28.4053 54.2747 28.346 54.7054 28.2275 55.1064C28.1136 55.5029 27.9404 55.8538 27.708 56.1592C27.4756 56.4645 27.1816 56.7038 26.8262 56.877C26.4707 57.0501 26.0583 57.1367 25.5889 57.1367C25.2334 57.1367 24.8939 57.0775 24.5703 56.959C24.2467 56.8359 23.9551 56.6536 23.6953 56.4121C23.4401 56.1706 23.2327 55.8743 23.0732 55.5234C22.9183 55.168 22.8317 54.7601 22.8135 54.2998H24.3652C24.3926 54.6188 24.4587 54.89 24.5635 55.1133C24.6729 55.3366 24.8118 55.5075 24.9805 55.626C25.1536 55.7399 25.3542 55.7969 25.582 55.7969C25.7871 55.7969 25.9671 55.749 26.1221 55.6533C26.2816 55.5531 26.4115 55.4118 26.5117 55.2295C26.612 55.0472 26.6872 54.833 26.7373 54.5869C26.7874 54.3363 26.8125 54.0605 26.8125 53.7598C26.8125 53.4727 26.7829 53.2106 26.7236 52.9736C26.6689 52.7321 26.5846 52.5247 26.4707 52.3516C26.3568 52.1738 26.2132 52.0371 26.04 51.9414C25.8714 51.8457 25.6732 51.7979 25.4453 51.7979C25.14 51.7979 24.9121 51.8571 24.7617 51.9756C24.6113 52.0895 24.4678 52.2262 24.3311 52.3857ZM35.7061 52.7139L32.6572 47.0469H34.667L36.5059 51.1963H38.085L37.8389 52.7139H35.7061ZM36.5127 52.4883L34.5508 57H32.4932L35.2754 51.3125L36.5127 52.4883ZM39.0215 47.0469V57H37.3672V47.0469H39.0215ZM43.6699 47.0469L40.6484 52.7139H38.5566L38.3037 51.1963H39.8555L41.6602 47.0469H43.6699ZM41.7764 57L39.8486 52.4883L41.0859 51.3125L43.834 57H41.7764ZM46.6094 47.0469V57H44.9482V47.0469H46.6094ZM51.5791 47.0469L48.2568 52.7412H46.1309L45.8916 51.21H47.3271L49.5557 47.0469H51.5791ZM49.8496 57L47.375 52.4678L48.4414 51.1279L51.8389 57H49.8496Z" fill="#0A4567"/>
</svg>
