<svg width="24" height="44" viewBox="0 0 24 44" fill="none" xmlns="http://www.w3.org/2000/svg">
    <path fill-rule="evenodd" clip-rule="evenodd" d="M2.68654 5.89453V3.53624C4.51038 3.06367 9.10619 1.97033 12.2851 2.0006C15.2699 2.02903 19.5658 3.07242 21.3135 3.53304V5.89453H2.68654ZM2.68654 7.89453V14.1717L7.14632 19.1271C7.23722 19.2281 7.31608 19.3361 7.38288 19.4492H17.152C17.2049 19.3551 17.2659 19.2641 17.3352 19.1775L21.3135 14.2047V7.89453H2.68654ZM17.1778 21.4492H7.40108C7.33827 21.5602 7.26399 21.6665 7.17824 21.7666L4.45456 24.9442L4.45456 30.9965L8.57091 32.826C9.29316 33.147 9.75863 33.8632 9.75863 34.6536V41.8438H15.4201V34.6218C15.4201 33.8642 15.8481 33.1717 16.5256 32.8329L20.1348 31.0283V24.9442L17.3785 21.7285C17.3026 21.64 17.2357 21.5465 17.1778 21.4492ZM12.3042 0.00069196C8.81059 -0.0325804 3.94668 1.14295 2.16311 1.60583C1.2758 1.8361 0.686539 2.63593 0.686539 3.52558V14.1717C0.686539 14.6658 0.869426 15.1424 1.19995 15.5097L5.65973 20.465L2.93605 23.6426C2.62535 24.0051 2.45456 24.4668 2.45456 24.9442V30.9965C2.45456 31.7869 2.92003 32.5031 3.64228 32.8241L7.75863 34.6536V41.8438C7.75863 42.9484 8.65406 43.8438 9.75863 43.8438H15.4201C16.5246 43.8438 17.4201 42.9484 17.4201 41.8438V34.6218L21.0292 32.8172C21.7068 32.4784 22.1348 31.7859 22.1348 31.0283V24.9442C22.1348 24.4668 21.964 24.0051 21.6533 23.6426L18.897 20.4269L22.8752 15.4541C23.1589 15.0995 23.3135 14.6588 23.3135 14.2047V3.52264C23.3135 2.63472 22.7261 1.83741 21.8437 1.60451C20.1318 1.15265 15.5849 0.0319369 12.3042 0.00069196Z" fill="#008891"/>
    </svg>
    