<svg width="45" height="39" viewBox="0 0 45 39" fill="none" xmlns="http://www.w3.org/2000/svg">
    <path d="M28.9167 8.08333C30.9333 8.08333 32.5833 6.43333 32.5833 4.41667C32.5833 2.4 30.9333 0.75 28.9167 0.75C26.9 0.75 25.25 2.4 25.25 4.41667C25.25 6.43333 26.9 8.08333 28.9167 8.08333ZM9.66667 20C4.53333 20 0.5 24.0333 0.5 29.1667C0.5 34.3 4.53333 38.3333 9.66667 38.3333C14.8 38.3333 18.8333 34.3 18.8333 29.1667C18.8333 24.0333 14.8 20 9.66667 20ZM9.66667 35.5833C6.18333 35.5833 3.25 32.65 3.25 29.1667C3.25 25.6833 6.18333 22.75 9.66667 22.75C13.15 22.75 16.0833 25.6833 16.0833 29.1667C16.0833 32.65 13.15 35.5833 9.66667 35.5833ZM20.3 17.25L24.7 12.85L26.1667 14.3167C28.55 16.7 31.6667 18.1667 35.5167 18.1667V14.5C32.7667 14.5 30.5667 13.4 28.9167 11.75L25.4333 8.26667C24.5167 7.53333 23.6 7.16667 22.5 7.16667C21.4 7.16667 20.4833 7.53333 19.9333 8.26667L14.8 13.4C14.0667 14.1333 13.7 15.05 13.7 15.9667C13.7 17.0667 14.0667 17.9833 14.8 18.5333L20.6667 23.6667V32.8333H24.3333V21.4667L20.3 17.25ZM35.3333 20C30.2 20 26.1667 24.0333 26.1667 29.1667C26.1667 34.3 30.2 38.3333 35.3333 38.3333C40.4667 38.3333 44.5 34.3 44.5 29.1667C44.5 24.0333 40.4667 20 35.3333 20ZM35.3333 35.5833C31.85 35.5833 28.9167 32.65 28.9167 29.1667C28.9167 25.6833 31.85 22.75 35.3333 22.75C38.8167 22.75 41.75 25.6833 41.75 29.1667C41.75 32.65 38.8167 35.5833 35.3333 35.5833Z" fill="#008891"/>
    </svg>
    