<svg width="37" height="37" viewBox="0 0 37 37" fill="none" xmlns="http://www.w3.org/2000/svg">
<path fill-rule="evenodd" clip-rule="evenodd" d="M26.3946 0.666992C32.4396 0.666992 36.5013 4.91033 36.5013 11.2253V25.942C36.5013 32.257 32.4396 36.5003 26.3946 36.5003H10.7746C4.72964 36.5003 0.667969 32.257 0.667969 25.942V11.2253C0.667969 4.91033 4.72964 0.666992 10.7746 0.666992H26.3946ZM26.3946 3.16699H10.7746C6.15464 3.16699 3.16797 6.32866 3.16797 11.2253V25.942C3.16797 30.8387 6.15464 34.0003 10.7746 34.0003H26.3946C31.0163 34.0003 34.0013 30.8387 34.0013 25.942V11.2253C34.0013 6.32866 31.0163 3.16699 26.3946 3.16699ZM10.8698 14.3378C11.5598 14.3378 12.1198 14.8978 12.1198 15.5878V27.0212C12.1198 27.7112 11.5598 28.2712 10.8698 28.2712C10.1798 28.2712 9.6198 27.7112 9.6198 27.0212V15.5878C9.6198 14.8978 10.1798 14.3378 10.8698 14.3378ZM18.6481 8.86449C19.3381 8.86449 19.8981 9.42449 19.8981 10.1145V27.0195C19.8981 27.7095 19.3381 28.2695 18.6481 28.2695C17.9581 28.2695 17.3981 27.7095 17.3981 27.0195V10.1145C17.3981 9.42449 17.9581 8.86449 18.6481 8.86449ZM26.2986 20.3795C26.9886 20.3795 27.5486 20.9395 27.5486 21.6295V27.0195C27.5486 27.7095 26.9886 28.2695 26.2986 28.2695C25.6086 28.2695 25.0486 27.7095 25.0486 27.0195V21.6295C25.0486 20.9395 25.6086 20.3795 26.2986 20.3795Z" fill="white"/>
</svg>
