<svg width="36" height="36" viewBox="0 0 36 36" fill="none" xmlns="http://www.w3.org/2000/svg">
    <path d="M24.7511 16.6863C25.381 16.0563 24.9349 14.9792 24.044 14.9792H22.6248C22.0726 14.9792 21.6248 14.5315 21.6248 13.9792V8.72919C21.6248 8.1769 21.1771 7.72919 20.6248 7.72919H15.3748C14.8226 7.72919 14.3748 8.1769 14.3748 8.72919V13.9792C14.3748 14.5315 13.9271 14.9792 13.3748 14.9792H11.9557C11.0648 14.9792 10.6186 16.0563 11.2486 16.6863L17.2927 22.7304C17.6833 23.1209 18.3164 23.1209 18.7069 22.7304L24.7511 16.6863ZM10.5415 25.8542C9.98922 25.8542 9.5415 26.3019 9.5415 26.8542V27.2709C9.5415 27.8231 9.98922 28.2709 10.5415 28.2709H25.4582C26.0105 28.2709 26.4582 27.8231 26.4582 27.2709V26.8542C26.4582 26.3019 26.0105 25.8542 25.4582 25.8542H10.5415Z" fill="#008891"/>
    <rect x="1.5415" y="1.72919" width="32.9167" height="32.5417" rx="9" stroke="#008891" stroke-width="2"/>
    </svg>
    