<svg width="38" height="38" viewBox="0 0 38 38" fill="none" xmlns="http://www.w3.org/2000/svg">
    <path d="M25.8307 4.33366C25.8307 2.29866 27.4624 0.666992 29.4974 0.666992C31.5324 0.666992 33.1641 2.29866 33.1641 4.33366C33.1641 6.36866 31.5324 8.00033 29.4974 8.00033C27.4624 8.00033 25.8307 6.36866 25.8307 4.33366ZM33.1641 37.3337V26.3337H37.7474L33.0907 12.3453C32.5774 10.842 31.1841 9.83366 29.6074 9.83366H29.3874C27.8107 9.83366 26.3991 10.842 25.9041 12.3453L24.3274 17.0753C26.3074 18.1753 27.6641 20.247 27.6641 22.667V37.3337H33.1641ZM19.4141 18.0837C20.9357 18.0837 22.1641 16.8553 22.1641 15.3337C22.1641 13.812 20.9357 12.5837 19.4141 12.5837C17.8924 12.5837 16.6641 13.812 16.6641 15.3337C16.6641 16.8553 17.8924 18.0837 19.4141 18.0837ZM6.58073 8.00033C8.61573 8.00033 10.2474 6.36866 10.2474 4.33366C10.2474 2.29866 8.61573 0.666992 6.58073 0.666992C4.54573 0.666992 2.91406 2.29866 2.91406 4.33366C2.91406 6.36866 4.54573 8.00033 6.58073 8.00033ZM10.2474 37.3337V24.5003H12.9974V13.5003C12.9974 11.4837 11.3474 9.83366 9.33073 9.83366H3.83073C1.81406 9.83366 0.164062 11.4837 0.164062 13.5003V24.5003H2.91406V37.3337H10.2474ZM22.1641 37.3337V30.0003H23.9974V22.667C23.9974 21.1637 22.7507 19.917 21.2474 19.917H17.5807C16.0774 19.917 14.8307 21.1637 14.8307 22.667V30.0003H16.6641V37.3337H22.1641Z" fill="#008891"/>
    </svg>
    