<svg width="16" height="16" viewBox="0 0 16 16" fill="none" xmlns="http://www.w3.org/2000/svg">
    <path d="M13.2675 2.63721H14.8125" stroke="#008891" stroke-linecap="round" stroke-linejoin="round"/>
    <path d="M0.9375 2.63721H10.185" stroke="#008891" stroke-linecap="round" stroke-linejoin="round"/>
    <path d="M11.7298 4.16742C12.5831 4.16742 13.2748 3.48242 13.2748 2.63742C13.2748 1.79243 12.5831 1.10742 11.7298 1.10742C10.8766 1.10742 10.1848 1.79243 10.1848 2.63742C10.1848 3.48242 10.8766 4.16742 11.7298 4.16742Z" stroke="#008891" stroke-linecap="round" stroke-linejoin="round"/>
    <path d="M13.2675 13.3623H14.8125" stroke="#008891" stroke-linecap="round" stroke-linejoin="round"/>
    <path d="M0.9375 13.3623H10.185" stroke="#008891" stroke-linecap="round" stroke-linejoin="round"/>
    <path d="M11.7298 14.8923C12.5831 14.8923 13.2748 14.2073 13.2748 13.3623C13.2748 12.5173 12.5831 11.8323 11.7298 11.8323C10.8766 11.8323 10.1848 12.5173 10.1848 13.3623C10.1848 14.2073 10.8766 14.8923 11.7298 14.8923Z" stroke="#008891" stroke-linecap="round" stroke-linejoin="round"/>
    <path d="M5.56506 7.99976H14.8126" stroke="#008891" stroke-linecap="round" stroke-linejoin="round"/>
    <path d="M0.9375 7.99976H2.4825" stroke="#008891" stroke-linecap="round" stroke-linejoin="round"/>
    <path d="M4.01985 9.52973C4.87313 9.52973 5.56487 8.84472 5.56487 7.99973C5.56487 7.15473 4.87313 6.46973 4.01985 6.46973C3.16657 6.46973 2.47485 7.15473 2.47485 7.99973C2.47485 8.84472 3.16657 9.52973 4.01985 9.52973Z" stroke="#008891" stroke-linecap="round" stroke-linejoin="round"/>
    </svg>
    