<svg width="33" height="40" viewBox="0 0 33 40" fill="none" xmlns="http://www.w3.org/2000/svg">
    <path d="M16.5 39.333C25.6117 39.333 33 31.9447 33 22.833C23.8883 22.833 16.5 30.2213 16.5 39.333ZM4.76667 17.7913C4.76667 20.3213 6.82 22.3747 9.35 22.3747C10.3217 22.3747 11.2017 22.0813 11.9533 21.568L11.9167 21.9163C11.9167 24.4463 13.97 26.4997 16.5 26.4997C19.03 26.4997 21.0833 24.4463 21.0833 21.9163L21.0467 21.568C21.78 22.0813 22.6783 22.3747 23.65 22.3747C26.18 22.3747 28.2333 20.3213 28.2333 17.7913C28.2333 15.958 27.1517 14.3997 25.6117 13.6663C27.1517 12.933 28.2333 11.3747 28.2333 9.54134C28.2333 7.01134 26.18 4.95801 23.65 4.95801C22.6783 4.95801 21.7983 5.25134 21.0467 5.76468L21.0833 5.41634C21.0833 2.88634 19.03 0.833008 16.5 0.833008C13.97 0.833008 11.9167 2.88634 11.9167 5.41634L11.9533 5.76468C11.22 5.25134 10.3217 4.95801 9.35 4.95801C6.82 4.95801 4.76667 7.01134 4.76667 9.54134C4.76667 11.3747 5.84833 12.933 7.38833 13.6663C5.84833 14.3997 4.76667 15.958 4.76667 17.7913ZM16.5 9.08301C19.03 9.08301 21.0833 11.1363 21.0833 13.6663C21.0833 16.1963 19.03 18.2497 16.5 18.2497C13.97 18.2497 11.9167 16.1963 11.9167 13.6663C11.9167 11.1363 13.97 9.08301 16.5 9.08301ZM0 22.833C0 31.9447 7.38833 39.333 16.5 39.333C16.5 30.2213 9.11167 22.833 0 22.833Z" fill="#008891"/>
    </svg>
    