<svg width="90" height="59" viewBox="0 0 90 59" fill="none" xmlns="http://www.w3.org/2000/svg">
<path d="M13.6452 8.81818V11.9876H5.42436V27H1.58026V8.81818H13.6452ZM31.9846 17.9091C31.9846 19.8918 31.6088 21.5786 30.8572 22.9695C30.1114 24.3603 29.0934 25.4227 27.8032 26.1566C26.5189 26.8846 25.0747 27.2486 23.4708 27.2486C21.855 27.2486 20.405 26.8816 19.1206 26.1477C17.8363 25.4138 16.8213 24.3514 16.0756 22.9606C15.3298 21.5697 14.9569 19.8859 14.9569 17.9091C14.9569 15.9264 15.3298 14.2396 16.0756 12.8487C16.8213 11.4579 17.8363 10.3984 19.1206 9.67045C20.405 8.93655 21.855 8.5696 23.4708 8.5696C25.0747 8.5696 26.5189 8.93655 27.8032 9.67045C29.0934 10.3984 30.1114 11.4579 30.8572 12.8487C31.6088 14.2396 31.9846 15.9264 31.9846 17.9091ZM28.0873 17.9091C28.0873 16.6248 27.8949 15.5417 27.5102 14.6598C27.1314 13.7779 26.5958 13.1091 25.9033 12.6534C25.2108 12.1977 24.4 11.9698 23.4708 11.9698C22.5416 11.9698 21.7307 12.1977 21.0383 12.6534C20.3458 13.1091 19.8072 13.7779 19.4225 14.6598C19.0437 15.5417 18.8543 16.6248 18.8543 17.9091C18.8543 19.1934 19.0437 20.2765 19.4225 21.1584C19.8072 22.0402 20.3458 22.709 21.0383 23.1648C21.7307 23.6205 22.5416 23.8484 23.4708 23.8484C24.4 23.8484 25.2108 23.6205 25.9033 23.1648C26.5958 22.709 27.1314 22.0402 27.5102 21.1584C27.8949 20.2765 28.0873 19.1934 28.0873 17.9091ZM33.8468 27V23.9105L34.3617 23.8661C35.0246 23.8129 35.5602 23.5613 35.9686 23.1115C36.377 22.6558 36.6818 21.9308 36.883 20.9364C37.0901 19.9362 37.2233 18.5927 37.2825 16.9059L37.5843 8.81818H49.9245V27H46.187V11.8988H41.1532L40.8691 18.2287C40.7744 20.2647 40.5318 21.9278 40.1412 23.218C39.7565 24.5083 39.1409 25.4612 38.2946 26.0767C37.4541 26.6922 36.303 27 34.8411 27H33.8468ZM69.802 17.9091C69.802 19.8918 69.4262 21.5786 68.6745 22.9695C67.9288 24.3603 66.9108 25.4227 65.6206 26.1566C64.3362 26.8846 62.8921 27.2486 61.2882 27.2486C59.6724 27.2486 58.2224 26.8816 56.938 26.1477C55.6537 25.4138 54.6387 24.3514 53.8929 22.9606C53.1472 21.5697 52.7743 19.8859 52.7743 17.9091C52.7743 15.9264 53.1472 14.2396 53.8929 12.8487C54.6387 11.4579 55.6537 10.3984 56.938 9.67045C58.2224 8.93655 59.6724 8.5696 61.2882 8.5696C62.8921 8.5696 64.3362 8.93655 65.6206 9.67045C66.9108 10.3984 67.9288 11.4579 68.6745 12.8487C69.4262 14.2396 69.802 15.9264 69.802 17.9091ZM65.9047 17.9091C65.9047 16.6248 65.7123 15.5417 65.3276 14.6598C64.9488 13.7779 64.4132 13.1091 63.7207 12.6534C63.0282 12.1977 62.2174 11.9698 61.2882 11.9698C60.359 11.9698 59.5481 12.1977 58.8556 12.6534C58.1632 13.1091 57.6246 13.7779 57.2399 14.6598C56.8611 15.5417 56.6717 16.6248 56.6717 17.9091C56.6717 19.1934 56.8611 20.2765 57.2399 21.1584C57.6246 22.0402 58.1632 22.709 58.8556 23.1648C59.5481 23.6205 60.359 23.8484 61.2882 23.8484C62.2174 23.8484 63.0282 23.6205 63.7207 23.1648C64.4132 22.709 64.9488 22.0402 65.3276 21.1584C65.7123 20.2765 65.9047 19.1934 65.9047 17.9091ZM88.6919 15.1836H84.8034C84.7323 14.6805 84.5873 14.2337 84.3683 13.843C84.1494 13.4465 83.8682 13.1091 83.5249 12.831C83.1817 12.5528 82.7851 12.3397 82.3353 12.1918C81.8914 12.0438 81.4091 11.9698 80.8882 11.9698C79.9472 11.9698 79.1275 12.2036 78.4291 12.6712C77.7307 13.1328 77.1891 13.8075 76.8044 14.6953C76.4197 15.5772 76.2274 16.6484 76.2274 17.9091C76.2274 19.2053 76.4197 20.2943 76.8044 21.1761C77.195 22.058 77.7396 22.7238 78.4379 23.1737C79.1363 23.6235 79.9442 23.8484 80.8616 23.8484C81.3765 23.8484 81.853 23.7803 82.2909 23.6442C82.7348 23.508 83.1284 23.3098 83.4717 23.0494C83.815 22.783 84.099 22.4605 84.324 22.0817C84.5548 21.7029 84.7146 21.2708 84.8034 20.7855L88.6919 20.8033C88.5912 21.6378 88.3397 22.4427 87.9372 23.218C87.5407 23.9875 87.0051 24.677 86.3303 25.2866C85.6615 25.8903 84.8625 26.3697 83.9333 26.7248C83.01 27.074 81.9654 27.2486 80.7994 27.2486C79.1778 27.2486 77.7277 26.8816 76.4493 26.1477C75.1768 25.4138 74.1707 24.3514 73.4308 22.9606C72.6969 21.5697 72.33 19.8859 72.33 17.9091C72.33 15.9264 72.7029 14.2396 73.4486 12.8487C74.1943 11.4579 75.2064 10.3984 76.4848 9.67045C77.7632 8.93655 79.2014 8.5696 80.7994 8.5696C81.853 8.5696 82.8295 8.71757 83.7291 9.01349C84.6347 9.30942 85.4366 9.74148 86.135 10.3097C86.8334 10.8719 87.4016 11.5614 87.8396 12.3782C88.2835 13.195 88.5676 14.1301 88.6919 15.1836Z" fill="#242424"/>
<path d="M0.230824 57.0774V53.4396H0.775568C0.932528 53.3411 1.05871 53.1842 1.15412 52.9688C1.2526 52.7533 1.33262 52.4994 1.39418 52.207C1.45881 51.9147 1.50805 51.5992 1.5419 51.2607C1.57884 50.919 1.61115 50.5743 1.63885 50.2266L1.82351 47.9091H7.26172V53.4396H8.36044V57.0774H6.48615V55H2.15128V57.0774H0.230824ZM2.73295 53.4396H5.4059V49.4233H3.49467L3.42081 50.2266C3.36849 50.9837 3.29309 51.6269 3.1946 52.1562C3.09612 52.6825 2.94223 53.1103 2.73295 53.4396ZM12.738 55.1385C12.0086 55.1385 11.3808 54.9908 10.8545 54.6953C10.3313 54.3968 9.92812 53.9751 9.64498 53.4304C9.36183 52.8826 9.22026 52.2347 9.22026 51.4869C9.22026 50.7575 9.36183 50.1173 9.64498 49.5664C9.92812 49.0155 10.3267 48.5862 10.8406 48.2784C11.3577 47.9706 11.964 47.8168 12.6595 47.8168C13.1273 47.8168 13.5628 47.8922 13.966 48.043C14.3722 48.1907 14.7262 48.4138 15.0278 48.7124C15.3325 49.0109 15.5695 49.3864 15.7387 49.8388C15.908 50.2881 15.9926 50.8144 15.9926 51.4176V51.9577H10.0051V50.739H14.1414C14.1414 50.4558 14.0799 50.205 13.9568 49.9865C13.8337 49.768 13.6628 49.5972 13.4443 49.4741C13.2289 49.3479 12.9781 49.2848 12.6919 49.2848C12.3933 49.2848 12.1286 49.354 11.8978 49.4925C11.6701 49.628 11.4916 49.8111 11.3623 50.0419C11.233 50.2696 11.1669 50.5236 11.1638 50.8036V51.9624C11.1638 52.3132 11.2284 52.6164 11.3577 52.8718C11.49 53.1272 11.6762 53.3242 11.9163 53.4627C12.1563 53.6012 12.441 53.6705 12.7703 53.6705C12.9888 53.6705 13.1889 53.6397 13.3705 53.5781C13.5521 53.5166 13.7075 53.4242 13.8367 53.3011C13.966 53.178 14.0645 53.0272 14.1322 52.8487L15.9511 52.9688C15.8588 53.4058 15.6695 53.7874 15.3833 54.1136C15.1001 54.4368 14.7339 54.6892 14.2845 54.8707C13.8383 55.0492 13.3228 55.1385 12.738 55.1385ZM17.276 55V47.9091H20.2998C21.1739 47.9091 21.8648 48.0753 22.3726 48.4077C22.8804 48.7401 23.1343 49.2125 23.1343 49.8249C23.1343 50.2096 22.9912 50.5297 22.705 50.7852C22.4188 51.0406 22.0218 51.2129 21.5139 51.3022C21.9387 51.333 22.3003 51.4299 22.5988 51.593C22.9004 51.7531 23.1297 51.9608 23.2867 52.2163C23.4467 52.4717 23.5267 52.7549 23.5267 53.0657C23.5267 53.4689 23.419 53.8151 23.2036 54.1044C22.9912 54.3937 22.6788 54.6153 22.2664 54.7692C21.8571 54.9231 21.357 55 20.7661 55H17.276ZM19.1088 53.5273H20.7661C21.04 53.5273 21.2539 53.4627 21.4078 53.3335C21.5647 53.2011 21.6432 53.0211 21.6432 52.7933C21.6432 52.541 21.5647 52.3424 21.4078 52.1978C21.2539 52.0531 21.04 51.9808 20.7661 51.9808H19.1088V53.5273ZM19.1088 50.8267H20.3414C20.5383 50.8267 20.7061 50.799 20.8445 50.7436C20.9861 50.6851 21.0938 50.602 21.1677 50.4943C21.2446 50.3866 21.2831 50.2589 21.2831 50.1112C21.2831 49.8926 21.1954 49.7218 21.02 49.5987C20.8445 49.4756 20.6045 49.4141 20.2998 49.4141H19.1088V50.8267ZM27.9978 55.1385C27.2684 55.1385 26.6405 54.9908 26.1143 54.6953C25.5911 54.3968 25.1879 53.9751 24.9047 53.4304C24.6216 52.8826 24.48 52.2347 24.48 51.4869C24.48 50.7575 24.6216 50.1173 24.9047 49.5664C25.1879 49.0155 25.5864 48.5862 26.1004 48.2784C26.6175 47.9706 27.2238 47.8168 27.9193 47.8168C28.3871 47.8168 28.8226 47.8922 29.2258 48.043C29.632 48.1907 29.9859 48.4138 30.2876 48.7124C30.5922 49.0109 30.8292 49.3864 30.9985 49.8388C31.1678 50.2881 31.2524 50.8144 31.2524 51.4176V51.9577H25.2648V50.739H29.4012C29.4012 50.4558 29.3396 50.205 29.2165 49.9865C29.0934 49.768 28.9226 49.5972 28.7041 49.4741C28.4887 49.3479 28.2378 49.2848 27.9516 49.2848C27.6531 49.2848 27.3884 49.354 27.1576 49.4925C26.9298 49.628 26.7513 49.8111 26.6221 50.0419C26.4928 50.2696 26.4266 50.5236 26.4236 50.8036V51.9624C26.4236 52.3132 26.4882 52.6164 26.6175 52.8718C26.7498 53.1272 26.936 53.3242 27.176 53.4627C27.4161 53.6012 27.7008 53.6705 28.0301 53.6705C28.2486 53.6705 28.4487 53.6397 28.6302 53.5781C28.8118 53.5166 28.9672 53.4242 29.0965 53.3011C29.2258 53.178 29.3242 53.0272 29.392 52.8487L31.2108 52.9688C31.1185 53.4058 30.9292 53.7874 30.643 54.1136C30.3599 54.4368 29.9936 54.6892 29.5443 54.8707C29.098 55.0492 28.5825 55.1385 27.9978 55.1385ZM32.1203 55L32.1111 53.4396H32.3465C32.5127 53.4396 32.6558 53.3996 32.7758 53.3196C32.8989 53.2365 33.0005 53.1026 33.0805 52.918C33.1605 52.7333 33.2236 52.4886 33.2698 52.1839C33.316 51.8762 33.3467 51.4976 33.3621 51.0483L33.4775 47.9091H38.8696V55H36.9953V49.4556H35.2456L35.1349 51.6207C35.1072 52.2147 35.0348 52.7256 34.9179 53.1534C34.804 53.5812 34.6455 53.9321 34.4424 54.206C34.2393 54.4768 33.9946 54.6768 33.7084 54.8061C33.4221 54.9354 33.0898 55 32.7112 55H32.1203ZM43.598 55.1385C42.8809 55.1385 42.2608 54.9862 41.7376 54.6815C41.2174 54.3737 40.8158 53.9459 40.5327 53.3981C40.2495 52.8472 40.108 52.2086 40.108 51.4822C40.108 50.7498 40.2495 50.1096 40.5327 49.5618C40.8158 49.0109 41.2174 48.5831 41.7376 48.2784C42.2608 47.9706 42.8809 47.8168 43.598 47.8168C44.3151 47.8168 44.9337 47.9706 45.4538 48.2784C45.977 48.5831 46.3802 49.0109 46.6634 49.5618C46.9465 50.1096 47.0881 50.7498 47.0881 51.4822C47.0881 52.2086 46.9465 52.8472 46.6634 53.3981C46.3802 53.9459 45.977 54.3737 45.4538 54.6815C44.9337 54.9862 44.3151 55.1385 43.598 55.1385ZM43.6072 53.6151C43.9335 53.6151 44.2058 53.5227 44.4244 53.3381C44.6429 53.1503 44.8075 52.8949 44.9183 52.5717C45.0322 52.2486 45.0891 51.8808 45.0891 51.4684C45.0891 51.056 45.0322 50.6882 44.9183 50.3651C44.8075 50.0419 44.6429 49.7865 44.4244 49.5987C44.2058 49.411 43.9335 49.3171 43.6072 49.3171C43.2779 49.3171 43.0009 49.411 42.7763 49.5987C42.5547 49.7865 42.387 50.0419 42.2731 50.3651C42.1623 50.6882 42.1069 51.056 42.1069 51.4684C42.1069 51.8808 42.1623 52.2486 42.2731 52.5717C42.387 52.8949 42.5547 53.1503 42.7763 53.3381C43.0009 53.5227 43.2779 53.6151 43.6072 53.6151ZM48.3668 55V47.9091H54.5668V55H52.6879V49.4556H50.2227V55H48.3668ZM60.3281 52.8256L62.2486 47.9091H63.7443L60.979 55H59.6726L56.9719 47.9091H58.4631L60.3281 52.8256ZM58.0153 47.9091V55H56.1364V47.9091H58.0153ZM62.7379 55V47.9091H64.5938V55H62.7379ZM69.3464 55.1385C68.617 55.1385 67.9892 54.9908 67.4629 54.6953C66.9397 54.3968 66.5365 53.9751 66.2534 53.4304C65.9702 52.8826 65.8287 52.2347 65.8287 51.4869C65.8287 50.7575 65.9702 50.1173 66.2534 49.5664C66.5365 49.0155 66.9351 48.5862 67.449 48.2784C67.9661 47.9706 68.5724 47.8168 69.2679 47.8168C69.7357 47.8168 70.1712 47.8922 70.5744 48.043C70.9806 48.1907 71.3346 48.4138 71.6362 48.7124C71.9409 49.0109 72.1779 49.3864 72.3471 49.8388C72.5164 50.2881 72.601 50.8144 72.601 51.4176V51.9577H66.6135V50.739H70.7498C70.7498 50.4558 70.6883 50.205 70.5652 49.9865C70.4421 49.768 70.2712 49.5972 70.0527 49.4741C69.8373 49.3479 69.5865 49.2848 69.3002 49.2848C69.0017 49.2848 68.737 49.354 68.5062 49.4925C68.2785 49.628 68.1 49.8111 67.9707 50.0419C67.8414 50.2696 67.7753 50.5236 67.7722 50.8036V51.9624C67.7722 52.3132 67.8368 52.6164 67.9661 52.8718C68.0984 53.1272 68.2846 53.3242 68.5247 53.4627C68.7647 53.6012 69.0494 53.6705 69.3787 53.6705C69.5972 53.6705 69.7973 53.6397 69.9789 53.5781C70.1605 53.5166 70.3159 53.4242 70.4451 53.3011C70.5744 53.178 70.6729 53.0272 70.7406 52.8487L72.5595 52.9688C72.4672 53.4058 72.2779 53.7874 71.9917 54.1136C71.7085 54.4368 71.3423 54.6892 70.8929 54.8707C70.4467 55.0492 69.9312 55.1385 69.3464 55.1385ZM78.8194 50.6697V52.2163H75.117V50.6697H78.8194ZM75.7633 47.9091V55H73.8844V47.9091H75.7633ZM80.052 47.9091V55H78.187V47.9091H80.052ZM80.8657 49.4556V47.9091H87.2918V49.4556H85.0067V55H83.1324V49.4556H80.8657Z" fill="#242424"/>
<rect y="35" width="90" height="6" fill="#0B7EBF"/>
</svg>
