<svg width="70" height="70" viewBox="0 0 70 70" fill="none" xmlns="http://www.w3.org/2000/svg">
<g clip-path="url(#clip0_1_8666)">
<rect width="70" height="70" fill="white"/>
<path d="M53.5285 30.9C54.4462 30.9 55.2393 31.5276 55.3491 32.4387C55.4307 33.1159 55.5 33.9887 55.5 35C55.5 45.66 47.3 55.5 35 55.5C23.52 55.5 14.5 45.5067 14.5 35C14.5 23.52 23.5758 14.5 35 14.5C39.9388 14.5 44.4777 16.2494 48.0168 19.1591C48.8701 19.8606 48.8644 21.1356 48.0834 21.9166L44.5292 25.4709C43.7493 26.2507 42.4932 26.235 41.5903 25.6017C39.722 24.2912 37.4492 23.52 35 23.52C28.6179 23.52 23.52 28.7188 23.52 35C23.52 41.3386 28.6614 46.48 35 46.48C38.247 46.48 41.1835 44.9075 43.2724 42.6191C44.2861 41.5085 43.3645 39.92 41.8608 39.92H37C35.8954 39.92 35 39.0246 35 37.92V32.9C35 31.7954 35.8954 30.9 37 30.9H53.5285Z" fill="#008891"/>
</g>
<defs>
<clipPath id="clip0_1_8666">
<rect width="70" height="70" fill="white"/>
</clipPath>
</defs>
</svg>
