<svg width="82" height="51" viewBox="0 0 82 51" fill="none" xmlns="http://www.w3.org/2000/svg">
<path d="M10.9805 17.9375V20.7852H4.83984V35H1.41797V17.9375H10.9805ZM14.2266 24.7578V39.875H10.957V22.3203H13.9805L14.2266 24.7578ZM20.8125 28.2266V29.0703C20.8125 30.0625 20.7266 30.9414 20.5547 31.707C20.3828 32.4648 20.125 33.1094 19.7812 33.6406C19.4453 34.1641 19.0234 34.5625 18.5156 34.8359C18.0078 35.1016 17.4141 35.2344 16.7344 35.2344C16.1016 35.2344 15.5547 35.0859 15.0938 34.7891C14.6406 34.4844 14.2578 34.0664 13.9453 33.5352C13.6328 33.0039 13.3828 32.3828 13.1953 31.6719C13.0078 30.9609 12.8633 30.1992 12.7617 29.3867V28.0742C12.8555 27.207 12.9922 26.4102 13.1719 25.6836C13.3516 24.9492 13.5977 24.3125 13.9102 23.7734C14.2305 23.2344 14.6172 22.8203 15.0703 22.5312C15.5312 22.2344 16.0781 22.0859 16.7109 22.0859C17.3984 22.0859 17.9961 22.2109 18.5039 22.4609C19.0195 22.7109 19.4453 23.0898 19.7812 23.5977C20.125 24.0977 20.3828 24.7344 20.5547 25.5078C20.7266 26.2812 20.8125 27.1875 20.8125 28.2266ZM17.5312 29.0703V28.2266C17.5312 27.6172 17.4961 27.0977 17.4258 26.668C17.3633 26.2383 17.2617 25.8867 17.1211 25.6133C16.9805 25.3398 16.7969 25.1406 16.5703 25.0156C16.3438 24.8906 16.0664 24.8281 15.7383 24.8281C15.418 24.8281 15.1367 24.8906 14.8945 25.0156C14.6602 25.1406 14.4688 25.3242 14.3203 25.5664C14.1719 25.8008 14.0586 26.0898 13.9805 26.4336C13.9023 26.7695 13.8594 27.1523 13.8516 27.582V29.8789C13.8672 30.3867 13.9336 30.8359 14.0508 31.2266C14.1758 31.6172 14.375 31.9297 14.6484 32.1641C14.9219 32.3906 15.293 32.5039 15.7617 32.5039C16.0977 32.5039 16.375 32.4336 16.5938 32.293C16.8203 32.1523 17.0039 31.9414 17.1445 31.6602C17.2852 31.3789 17.3828 31.0234 17.4375 30.5938C17.5 30.1641 17.5312 29.6562 17.5312 29.0703ZM26.0742 29.2812L29.2266 22.3203H32.3906V35H29.1445V28.0625L26.0039 35H22.8281V22.3203H26.0742V29.2812ZM42.1172 27.4062V30.125H37.0547V27.4062H42.1172ZM38.1211 22.3203V35H34.8281V22.3203H38.1211ZM44.3555 22.3203V35H41.0742V22.3203H44.3555ZM52.2891 29.7383H49.0898L49.0781 27.4531H51.668C51.9727 27.4531 52.2148 27.4102 52.3945 27.3242C52.5742 27.2383 52.7031 27.1133 52.7812 26.9492C52.8672 26.7773 52.9102 26.5664 52.9102 26.3164C52.9102 26.082 52.8828 25.8867 52.8281 25.7305C52.7734 25.5664 52.6914 25.4336 52.582 25.332C52.4727 25.2227 52.3359 25.1445 52.1719 25.0977C52.0078 25.0508 51.8203 25.0273 51.6094 25.0273H50.2969V35H47.0156V22.3203H51.6094C52.3125 22.3203 52.9453 22.3945 53.5078 22.543C54.0703 22.6836 54.5547 22.8984 54.9609 23.1875C55.3672 23.4766 55.6758 23.8438 55.8867 24.2891C56.0977 24.7344 56.2031 25.2578 56.2031 25.8594C56.2031 26.25 56.125 26.6172 55.9688 26.9609C55.8125 27.2969 55.582 27.5977 55.2773 27.8633C54.9805 28.1289 54.6094 28.3477 54.1641 28.5195C53.7188 28.6836 53.2109 28.7852 52.6406 28.8242L52.2891 29.7383ZM52.2891 35H48.2578L49.4414 32.293H52.2891C52.5781 32.293 52.8086 32.2461 52.9805 32.1523C53.1523 32.0586 53.2773 31.918 53.3555 31.7305C53.4336 31.543 53.4727 31.3125 53.4727 31.0391C53.4727 30.7812 53.4375 30.5547 53.3672 30.3594C53.3047 30.1562 53.1875 30.0039 53.0156 29.9023C52.8438 29.793 52.6016 29.7383 52.2891 29.7383H49.6406L49.6641 27.4531H52.5938L53.3555 28.3789C54.1523 28.4336 54.8008 28.6016 55.3008 28.8828C55.8008 29.1641 56.168 29.5234 56.4023 29.9609C56.6367 30.3906 56.7539 30.8633 56.7539 31.3789C56.7539 31.9805 56.6562 32.5078 56.4609 32.9609C56.2656 33.4141 55.9805 33.793 55.6055 34.0977C55.2383 34.3945 54.7734 34.6211 54.2109 34.7773C53.6562 34.9258 53.0156 35 52.2891 35ZM62.0039 29.2812L65.1562 22.3203H68.3203V35H65.0742V28.0625L61.9336 35H58.7578V22.3203H62.0039V29.2812ZM80.0859 22.3203V35H76.793V22.3203H80.0859ZM78.5391 27.7227V30.4531C78.3203 30.5859 78.043 30.707 77.707 30.8164C77.3789 30.9258 77.0312 31.0156 76.6641 31.0859C76.3047 31.1484 75.957 31.1797 75.6211 31.1797C74.5977 31.1797 73.707 31.0117 72.9492 30.6758C72.1992 30.332 71.6172 29.8008 71.2031 29.082C70.7891 28.3633 70.582 27.4453 70.582 26.3281V22.3086H73.8633V26.3281C73.8633 26.875 73.9258 27.3047 74.0508 27.6172C74.1836 27.9297 74.3789 28.1484 74.6367 28.2734C74.8945 28.3906 75.2227 28.4492 75.6211 28.4492C75.957 28.4492 76.2734 28.4219 76.5703 28.3672C76.8672 28.3047 77.1719 28.2188 77.4844 28.1094C77.7969 28 78.1484 27.8711 78.5391 27.7227Z" fill="#3F8D5F"/>
<path d="M5.98828 45.5508L4.24609 42.3125H5.39453L6.44531 44.6836H7.34766L7.20703 45.5508H5.98828ZM6.44922 45.4219L5.32812 48H4.15234L5.74219 44.75L6.44922 45.4219ZM7.88281 42.3125V48H6.9375V42.3125H7.88281ZM10.5391 42.3125L8.8125 45.5508H7.61719L7.47266 44.6836H8.35938L9.39062 42.3125H10.5391ZM9.45703 48L8.35547 45.4219L9.0625 44.75L10.6328 48H9.45703ZM12.1094 46.4414L13.3789 43.7734H14.2656V48H13.3633V45.3359L12.0938 48H11.207V43.7734H12.1094V46.4414ZM17.5781 43.7734V44.543H15.8789V43.7734H17.5781ZM18.3008 43.7734V48H17.3945V43.7734H18.3008ZM15.6562 43.7734H16.5586L16.457 45.8672C16.4414 46.1771 16.4128 46.4505 16.3711 46.6875C16.332 46.9219 16.2786 47.1224 16.2109 47.2891C16.1458 47.4557 16.0638 47.5924 15.9648 47.6992C15.8685 47.8034 15.7565 47.8802 15.6289 47.9297C15.5039 47.9766 15.362 48 15.2031 48H14.9297L14.9258 47.2109L15.0547 47.1953C15.1328 47.1875 15.2005 47.1628 15.2578 47.1211C15.3151 47.0794 15.3633 47.0182 15.4023 46.9375C15.4414 46.8568 15.4727 46.7539 15.4961 46.6289C15.5221 46.5013 15.5417 46.3516 15.5547 46.1797C15.5703 46.0052 15.582 45.8047 15.5898 45.5781L15.6562 43.7734ZM21.207 47.1406V45.0352C21.207 44.8893 21.1862 44.7721 21.1445 44.6836C21.1055 44.5951 21.0469 44.5312 20.9688 44.4922C20.8932 44.4505 20.7982 44.4297 20.6836 44.4297C20.5638 44.4297 20.4622 44.4544 20.3789 44.5039C20.2982 44.5534 20.237 44.6211 20.1953 44.707C20.1536 44.7904 20.1328 44.8867 20.1328 44.9961H19.2227C19.2227 44.8268 19.2565 44.6641 19.3242 44.5078C19.3945 44.3516 19.4948 44.2122 19.625 44.0898C19.7552 43.9674 19.9128 43.8711 20.0977 43.8008C20.2826 43.7305 20.4883 43.6953 20.7148 43.6953C20.9857 43.6953 21.2266 43.7409 21.4375 43.832C21.6484 43.9206 21.8138 44.0651 21.9336 44.2656C22.056 44.4635 22.1172 44.724 22.1172 45.0469V47.0195C22.1172 47.2148 22.1289 47.3893 22.1523 47.543C22.1784 47.694 22.2135 47.8255 22.2578 47.9375V48H21.332C21.2904 47.8984 21.2591 47.7682 21.2383 47.6094C21.2174 47.4505 21.207 47.2943 21.207 47.1406ZM21.3281 45.4258L21.332 46.0156H20.8945C20.7643 46.0156 20.6471 46.0339 20.543 46.0703C20.4388 46.1042 20.3503 46.1536 20.2773 46.2188C20.207 46.2812 20.1523 46.3581 20.1133 46.4492C20.0768 46.5404 20.0586 46.6406 20.0586 46.75C20.0586 46.8828 20.0768 46.9909 20.1133 47.0742C20.1523 47.1576 20.2083 47.2201 20.2812 47.2617C20.3568 47.3008 20.4479 47.3203 20.5547 47.3203C20.7005 47.3203 20.8268 47.2891 20.9336 47.2266C21.043 47.1615 21.1263 47.0833 21.1836 46.9922C21.2435 46.901 21.2669 46.8177 21.2539 46.7422L21.4609 47.1211C21.4401 47.2201 21.401 47.3242 21.3438 47.4336C21.2891 47.543 21.2174 47.6471 21.1289 47.7461C21.0404 47.8451 20.9336 47.9258 20.8086 47.9883C20.6836 48.0482 20.5391 48.0781 20.375 48.0781C20.138 48.0781 19.9271 48.0286 19.7422 47.9297C19.5573 47.8307 19.4115 47.6888 19.3047 47.5039C19.2005 47.3164 19.1484 47.0924 19.1484 46.832C19.1484 46.6211 19.1836 46.4297 19.2539 46.2578C19.3242 46.0859 19.4284 45.9388 19.5664 45.8164C19.7044 45.6914 19.8776 45.5951 20.0859 45.5273C20.2969 45.4596 20.543 45.4258 20.8242 45.4258H21.3281ZM23.7773 45.9297H24.7148L23.6953 48H22.7578L23.7773 45.9297ZM24.4023 43.7734H25.9688V48H25.0625V44.5312H24.4023C24.2721 44.5312 24.1641 44.5625 24.0781 44.625C23.9922 44.6849 23.9284 44.763 23.8867 44.8594C23.8477 44.9531 23.8281 45.0508 23.8281 45.1523C23.8281 45.2513 23.8477 45.3477 23.8867 45.4414C23.9258 45.5326 23.9857 45.6081 24.0664 45.668C24.1497 45.7253 24.2539 45.7539 24.3789 45.7539H25.3555V46.4531H24.3789C24.1523 46.4531 23.9479 46.4206 23.7656 46.3555C23.5859 46.2878 23.4323 46.1953 23.3047 46.0781C23.1797 45.9583 23.0833 45.8177 23.0156 45.6562C22.9505 45.4948 22.918 45.319 22.918 45.1289C22.918 44.9336 22.9518 44.7539 23.0195 44.5898C23.0872 44.4232 23.1849 44.2799 23.3125 44.1602C23.4427 44.0378 23.599 43.9427 23.7812 43.875C23.9635 43.8073 24.1706 43.7734 24.4023 43.7734ZM31.2227 45.5312V46.2891H29.4844V45.5312H31.2227ZM29.7422 43.7734V48H28.832V43.7734H29.7422ZM31.8828 43.7734V48H30.9727V43.7734H31.8828ZM34.4492 48.0781C34.1758 48.0781 33.9323 48.0378 33.7188 47.957C33.5052 47.8737 33.3242 47.7513 33.1758 47.5898C33.0273 47.4258 32.9141 47.2253 32.8359 46.9883C32.7578 46.7487 32.7188 46.4714 32.7188 46.1562V45.75C32.7188 45.3932 32.7591 45.0859 32.8398 44.8281C32.9232 44.5677 33.0378 44.3542 33.1836 44.1875C33.3294 44.0208 33.5013 43.8971 33.6992 43.8164C33.8997 43.7357 34.1172 43.6953 34.3516 43.6953C34.6172 43.6953 34.8477 43.7383 35.043 43.8242C35.2383 43.9102 35.3984 44.0391 35.5234 44.2109C35.651 44.3828 35.7448 44.5951 35.8047 44.8477C35.8672 45.1003 35.8984 45.3906 35.8984 45.7188V46.1758H33.1562V45.4883H35V45.3906C34.9948 45.1979 34.9714 45.0326 34.9297 44.8945C34.888 44.7539 34.8203 44.6471 34.7266 44.5742C34.6354 44.4987 34.5091 44.4609 34.3477 44.4609C34.2305 44.4609 34.1263 44.4831 34.0352 44.5273C33.944 44.5716 33.8685 44.6432 33.8086 44.7422C33.7513 44.8411 33.707 44.974 33.6758 45.1406C33.6445 45.3047 33.6289 45.5078 33.6289 45.75V46.1562C33.6289 46.3672 33.6471 46.5456 33.6836 46.6914C33.7227 46.8372 33.7799 46.957 33.8555 47.0508C33.931 47.1419 34.0221 47.2096 34.1289 47.2539C34.2383 47.2956 34.3646 47.3164 34.5078 47.3164C34.7188 47.3164 34.8997 47.2773 35.0508 47.1992C35.2044 47.1185 35.3372 47.0143 35.4492 46.8867L35.8516 47.4453C35.776 47.5469 35.6745 47.6471 35.5469 47.7461C35.4193 47.8424 35.2643 47.9219 35.082 47.9844C34.9023 48.0469 34.6914 48.0781 34.4492 48.0781ZM37.2734 43.7734H38.1836L38.1523 45.2578C38.1419 45.6901 38.099 46.0625 38.0234 46.375C37.9479 46.6849 37.849 46.9466 37.7266 47.1602C37.6042 47.3737 37.4648 47.5482 37.3086 47.6836C37.1523 47.8164 36.9857 47.9219 36.8086 48H36.5508V47.2422L36.6719 47.2344C36.7734 47.112 36.8581 46.9909 36.9258 46.8711C36.9961 46.7487 37.0534 46.6146 37.0977 46.4688C37.1419 46.3203 37.1745 46.1484 37.1953 45.9531C37.2188 45.7578 37.2344 45.526 37.2422 45.2578L37.2734 43.7734ZM37.5039 43.7734H39.8438V48H38.9375V44.582H37.5039V43.7734ZM36.3711 47.2344H40.3672V49.2617H39.4609V48H37.293V49.2617H36.3672L36.3711 47.2344ZM42.8164 46.1953H41.7188L41.7148 45.5195H42.5977C42.7331 45.5195 42.8438 45.5026 42.9297 45.4688C43.0182 45.4323 43.0833 45.3789 43.125 45.3086C43.1693 45.2357 43.1914 45.1471 43.1914 45.043C43.1914 44.9544 43.1784 44.8776 43.1523 44.8125C43.1263 44.7474 43.0872 44.694 43.0352 44.6523C42.9857 44.6107 42.9232 44.5807 42.8477 44.5625C42.7747 44.5417 42.6888 44.5312 42.5898 44.5312H42.0195V48H41.1094V43.7734H42.5898C42.8216 43.7734 43.0299 43.7969 43.2148 43.8438C43.4023 43.8906 43.5625 43.9622 43.6953 44.0586C43.8281 44.1549 43.9284 44.2773 43.9961 44.4258C44.0664 44.5716 44.1016 44.7448 44.1016 44.9453C44.1016 45.0729 44.0768 45.194 44.0273 45.3086C43.9805 45.4232 43.9089 45.5247 43.8125 45.6133C43.7188 45.7018 43.6029 45.7747 43.4648 45.832C43.3268 45.8867 43.168 45.9206 42.9883 45.9336L42.8164 46.1953ZM42.8164 48H41.4492L41.8281 47.2422H42.8125C42.9401 47.2422 43.0417 47.2227 43.1172 47.1836C43.1953 47.1419 43.2526 47.0833 43.2891 47.0078C43.3281 46.9297 43.3477 46.8359 43.3477 46.7266C43.3477 46.6172 43.3294 46.5234 43.293 46.4453C43.2591 46.3646 43.2031 46.3034 43.125 46.2617C43.0469 46.2174 42.9427 46.1953 42.8125 46.1953H41.9102L41.918 45.5195H42.9727L43.2227 45.7852C43.457 45.8034 43.651 45.8607 43.8047 45.957C43.9583 46.0534 44.0716 46.1745 44.1445 46.3203C44.2201 46.4661 44.2578 46.625 44.2578 46.7969C44.2578 46.9948 44.2253 47.1693 44.1602 47.3203C44.0951 47.4714 44.0013 47.5977 43.8789 47.6992C43.7591 47.7982 43.6094 47.8737 43.4297 47.9258C43.25 47.9753 43.0456 48 42.8164 48ZM45.9844 46.4414L47.2539 43.7734H48.1406V48H47.2383V45.3359L45.9688 48H45.082V43.7734H45.9844V46.4414ZM50.2305 46.3047L48.8438 43.7734H49.9609L50.668 45.4297H51.3828L51.2578 46.3047H50.2305ZM50.6836 46.1641L49.9219 48H48.8086L50 45.625L50.6836 46.1641ZM51.9258 43.7734V48H51.0156V43.7734H51.9258ZM54.1055 43.7734L52.7188 46.3047H51.6914L51.5664 45.4297H52.2773L52.9883 43.7734H54.1055ZM53.0234 48L52.2578 46.1641L52.9609 45.625L54.1523 48H53.0234ZM55.7031 46.4414L56.9727 43.7734H57.8594V48H56.957V45.3359L55.6875 48H54.8008V43.7734H55.7031V46.4414ZM60.9531 46.7383L61.8984 43.7734H62.6875L61.2773 48H60.625L59.2109 43.7734H60.0078L60.9531 46.7383ZM59.7578 43.7734V48H58.8672V43.7734H59.7578ZM62.1484 48V43.7734H63.043V48H62.1484ZM63.9102 46.0586V45.7188C63.9102 45.3906 63.9505 45.1003 64.0312 44.8477C64.112 44.5951 64.2266 44.3841 64.375 44.2148C64.526 44.043 64.7031 43.9141 64.9062 43.8281C65.1094 43.7396 65.3333 43.6953 65.5781 43.6953C65.8281 43.6953 66.0547 43.7396 66.2578 43.8281C66.4635 43.9141 66.6406 44.043 66.7891 44.2148C66.9401 44.3841 67.056 44.5951 67.1367 44.8477C67.2174 45.1003 67.2578 45.3906 67.2578 45.7188V46.0586C67.2578 46.3867 67.2174 46.6771 67.1367 46.9297C67.056 47.1823 66.9401 47.3945 66.7891 47.5664C66.6406 47.7357 66.4648 47.8633 66.2617 47.9492C66.0586 48.0352 65.8333 48.0781 65.5859 48.0781C65.3411 48.0781 65.1159 48.0352 64.9102 47.9492C64.707 47.8633 64.5299 47.7357 64.3789 47.5664C64.2279 47.3945 64.112 47.1823 64.0312 46.9297C63.9505 46.6771 63.9102 46.3867 63.9102 46.0586ZM64.8203 45.7188V46.0586C64.8203 46.2695 64.8385 46.4544 64.875 46.6133C64.9115 46.7695 64.9635 46.8997 65.0312 47.0039C65.099 47.1081 65.1797 47.1862 65.2734 47.2383C65.3672 47.2904 65.4714 47.3164 65.5859 47.3164C65.7135 47.3164 65.8242 47.2904 65.918 47.2383C66.0143 47.1862 66.0938 47.1081 66.1562 47.0039C66.2214 46.8997 66.2695 46.7695 66.3008 46.6133C66.332 46.4544 66.3477 46.2695 66.3477 46.0586V45.7188C66.3477 45.5104 66.3294 45.3281 66.293 45.1719C66.2565 45.013 66.2044 44.8815 66.1367 44.7773C66.069 44.6706 65.987 44.5911 65.8906 44.5391C65.7969 44.487 65.6927 44.4609 65.5781 44.4609C65.4661 44.4609 65.3633 44.487 65.2695 44.5391C65.1784 44.5911 65.099 44.6706 65.0312 44.7773C64.9635 44.8815 64.9115 45.013 64.875 45.1719C64.8385 45.3281 64.8203 45.5104 64.8203 45.7188ZM69.543 47.3164C69.6602 47.3164 69.7643 47.2917 69.8555 47.2422C69.9492 47.1927 70.0234 47.1159 70.0781 47.0117C70.1328 46.9049 70.1628 46.7669 70.168 46.5977H71.0234C71.0182 46.8971 70.9492 47.1589 70.8164 47.3828C70.6836 47.6042 70.5065 47.776 70.2852 47.8984C70.0664 48.0182 69.8229 48.0781 69.5547 48.0781C69.276 48.0781 69.0326 48.0339 68.8242 47.9453C68.6185 47.8542 68.4479 47.7227 68.3125 47.5508C68.1771 47.3789 68.0755 47.1706 68.0078 46.9258C67.9427 46.6784 67.9102 46.3958 67.9102 46.0781V45.6953C67.9102 45.3802 67.9427 45.099 68.0078 44.8516C68.0755 44.6042 68.1771 44.3945 68.3125 44.2227C68.4479 44.0508 68.6185 43.9206 68.8242 43.832C69.0299 43.7409 69.2721 43.6953 69.5508 43.6953C69.8477 43.6953 70.1042 43.7578 70.3203 43.8828C70.5391 44.0052 70.7096 44.1849 70.832 44.4219C70.9544 44.6589 71.0182 44.9492 71.0234 45.293H70.168C70.1628 45.1107 70.1354 44.9583 70.0859 44.8359C70.0365 44.7109 69.9661 44.6172 69.875 44.5547C69.7865 44.4922 69.6745 44.4609 69.5391 44.4609C69.3906 44.4609 69.2682 44.4896 69.1719 44.5469C69.0781 44.6016 69.0052 44.6823 68.9531 44.7891C68.9036 44.8958 68.8685 45.026 68.8477 45.1797C68.8294 45.3307 68.8203 45.5026 68.8203 45.6953V46.0781C68.8203 46.276 68.8294 46.4518 68.8477 46.6055C68.8659 46.7565 68.8997 46.8854 68.9492 46.9922C69.0013 47.099 69.0755 47.1797 69.1719 47.2344C69.2682 47.2891 69.3919 47.3164 69.543 47.3164ZM73.4844 43.7734V48H72.5703V43.7734H73.4844ZM74.6016 43.7734V44.5312H71.4648V43.7734H74.6016ZM75.9453 45.1094H76.9492C77.2643 45.1094 77.5299 45.1706 77.7461 45.293C77.9648 45.4154 78.1315 45.5859 78.2461 45.8047C78.3607 46.0208 78.418 46.2695 78.418 46.5508C78.418 46.7565 78.3854 46.9479 78.3203 47.125C78.2552 47.3021 78.1602 47.4557 78.0352 47.5859C77.9102 47.7161 77.7565 47.8177 77.5742 47.8906C77.3945 47.9635 77.1862 48 76.9492 48H75.3281V43.7734H76.2422V47.2383H76.9492C77.0872 47.2383 77.1966 47.2057 77.2773 47.1406C77.3607 47.0755 77.4193 46.9922 77.4531 46.8906C77.4896 46.7891 77.5078 46.6797 77.5078 46.5625C77.5078 46.4453 77.4896 46.3346 77.4531 46.2305C77.4193 46.1237 77.3607 46.0378 77.2773 45.9727C77.1966 45.9049 77.0872 45.8711 76.9492 45.8711H75.9453V45.1094Z" fill="#3F8D5F"/>
<circle cx="9" cy="5" r="5" fill="#3F8D5F"/>
<circle cx="25" cy="5" r="5" fill="#3F8D5F"/>
<circle cx="41" cy="5" r="5" fill="#3F8D5F"/>
<circle cx="57" cy="5" r="5" fill="#3F8D5F"/>
<circle cx="73" cy="5" r="5" fill="#ED6616"/>
</svg>
