<svg width="35" height="33" viewBox="0 0 35 33" fill="none" xmlns="http://www.w3.org/2000/svg">
<path fill-rule="evenodd" clip-rule="evenodd" d="M17.3903 1.73186C20.1003 0.0185303 23.7003 -0.454803 26.8103 0.541864C33.5753 2.72353 35.6753 10.0985 33.797 15.9669C30.8986 25.1835 18.5203 32.0585 17.9953 32.3469C17.8086 32.4502 17.602 32.5019 17.3953 32.5019C17.1886 32.5019 16.9836 32.4519 16.797 32.3502C16.2753 32.0652 3.98696 25.2919 0.991959 15.9685C0.990292 15.9685 0.990292 15.9669 0.990292 15.9669C-0.889708 10.0969 1.20363 2.7202 7.96196 0.541864C11.1353 -0.484803 14.5936 -0.0331364 17.3903 1.73186ZM8.72863 2.92186C3.26029 4.6852 1.88696 10.5669 3.37196 15.2052C5.70863 22.4752 14.9403 28.3535 17.3936 29.8085C19.8553 28.3385 29.1536 22.3952 31.4153 15.2119C32.9003 10.5685 31.522 4.68686 26.0453 2.92186C23.392 2.0702 20.297 2.58853 18.1603 4.24186C17.7136 4.5852 17.0936 4.59186 16.6436 4.25186C14.3803 2.5502 11.4236 2.05186 8.72863 2.92186ZM24.4453 6.2317C26.717 6.9667 28.3086 8.97836 28.5036 11.3567C28.5586 12.045 28.047 12.6484 27.3586 12.7034C27.3236 12.7067 27.2903 12.7084 27.2553 12.7084C26.6103 12.7084 26.0636 12.2134 26.0103 11.56C25.9003 10.19 24.9836 9.03336 23.6786 8.6117C23.0203 8.39836 22.6603 7.69336 22.872 7.03836C23.087 6.3817 23.7853 6.02503 24.4453 6.2317Z" fill="white"/>
</svg>
