<svg width="15" height="46" viewBox="0 0 15 46" fill="none" xmlns="http://www.w3.org/2000/svg">
    <path d="M8.20711 0.292893C7.81658 -0.0976311 7.18342 -0.0976311 6.79289 0.292893L0.428932 6.65685C0.0384078 7.04738 0.0384078 7.68054 0.428932 8.07107C0.819457 8.46159 1.45262 8.46159 1.84315 8.07107L7.5 2.41421L13.1569 8.07107C13.5474 8.46159 14.1805 8.46159 14.5711 8.07107C14.9616 7.68054 14.9616 7.04738 14.5711 6.65685L8.20711 0.292893ZM6.79289 45.7071C7.18342 46.0976 7.81658 46.0976 8.20711 45.7071L14.5711 39.3431C14.9616 38.9526 14.9616 38.3195 14.5711 37.9289C14.1805 37.5384 13.5474 37.5384 13.1569 37.9289L7.5 43.5858L1.84315 37.9289C1.45262 37.5384 0.819457 37.5384 0.428932 37.9289C0.0384078 38.3195 0.0384078 38.9526 0.428932 39.3431L6.79289 45.7071ZM6.5 1L6.5 45H8.5L8.5 1L6.5 1Z" fill="#008891"/>
    </svg>
    