<svg width="36" height="36" viewBox="0 0 36 36" fill="none" xmlns="http://www.w3.org/2000/svg">
<path fill-rule="evenodd" clip-rule="evenodd" d="M25.7648 0.0830078C31.8367 0.0830078 35.9163 4.34359 35.9163 10.6825V25.3168C35.9163 31.6558 31.8367 35.9163 25.7612 35.9163H10.231C4.16084 35.9163 0.0830078 31.6558 0.0830078 25.3168V10.6825C0.0830078 4.34359 4.16084 0.0830078 10.231 0.0830078H25.7648ZM25.7648 2.77051H10.231C5.69988 2.77051 2.77051 5.87547 2.77051 10.6825V25.3168C2.77051 30.1239 5.69988 33.2288 10.231 33.2288H25.7612C30.2977 33.2288 33.2288 30.1239 33.2288 25.3168V10.6825C33.2288 5.87547 30.2977 2.77051 25.7648 2.77051ZM17.9889 16.6559C18.7307 16.6559 19.3327 17.2579 19.3327 17.9997V25.1663C19.3327 25.9081 18.7307 26.5101 17.9889 26.5101C17.2472 26.5101 16.6452 25.9081 16.6452 25.1663V17.9997C16.6452 17.2579 17.2472 16.6559 17.9889 16.6559ZM17.9977 9.40702C18.9885 9.40702 19.7894 10.2079 19.7894 11.1987C19.7894 12.1895 18.9885 12.9904 17.9977 12.9904C17.0069 12.9904 16.1971 12.1895 16.1971 11.1987C16.1971 10.2079 16.9908 9.40702 17.9798 9.40702H17.9977Z" fill="white"/>
</svg>
