<svg width="36" height="36" viewBox="0 0 36 36" fill="none" xmlns="http://www.w3.org/2000/svg">
<rect x="1" y="1" width="34" height="34" rx="9" fill="#ED6616" stroke="white" stroke-width="2"/>
<path d="M11.3885 12.9545H14.8679V26.1207C14.8679 27.09 14.6773 27.8741 14.2962 28.473C13.915 29.072 13.3678 29.5103 12.6545 29.788C11.9466 30.0657 11.0999 30.2045 10.1143 30.2045C9.99455 30.2045 9.88021 30.2018 9.77131 30.1964C9.65696 30.1964 9.53717 30.1937 9.41193 30.1882V27.4684C9.5045 27.4738 9.58617 27.4766 9.65696 27.4766C9.7223 27.482 9.79309 27.4847 9.86932 27.4847C10.4302 27.4847 10.8222 27.3649 11.0455 27.1254C11.2741 26.8912 11.3885 26.5373 11.3885 26.0636V12.9545ZM13.12 11.3374C12.6082 11.3374 12.1671 11.1658 11.7969 10.8228C11.4266 10.4743 11.2415 10.0578 11.2415 9.57315C11.2415 9.09399 11.4266 8.68288 11.7969 8.33984C12.1671 7.99136 12.6082 7.81712 13.12 7.81712C13.6428 7.81712 14.0865 7.99136 14.4513 8.33984C14.8216 8.68288 15.0067 9.09399 15.0067 9.57315C15.0067 10.0578 14.8216 10.4743 14.4513 10.8228C14.0865 11.1658 13.6428 11.3374 13.12 11.3374ZM24.4015 12.9545V15.5682H16.6586V12.9545H24.4015ZM18.431 25.5V12.0479C18.431 11.1386 18.608 10.3845 18.9619 9.78551C19.3213 9.18655 19.8113 8.73733 20.4321 8.43785C21.0528 8.13837 21.758 7.98864 22.5475 7.98864C23.0811 7.98864 23.5684 8.02947 24.0095 8.11115C24.456 8.19283 24.7881 8.26633 25.0059 8.33168L24.3852 10.9453C24.2491 10.9018 24.0803 10.8609 23.8788 10.8228C23.6828 10.7847 23.4813 10.7656 23.2744 10.7656C22.7626 10.7656 22.4059 10.8854 22.2045 11.125C22.003 11.3591 21.9023 11.6886 21.9023 12.1133V25.5H18.431Z" fill="white"/>
</svg>
