<svg width="36" height="36" viewBox="0 0 36 36" fill="none" xmlns="http://www.w3.org/2000/svg">
<rect x="1" y="1" width="34" height="34" rx="9" stroke="white" stroke-width="2"/>
<path d="M11.3885 13.4545H14.8679V26.6207C14.8679 27.59 14.6773 28.3741 14.2962 28.973C13.915 29.572 13.3678 30.0103 12.6545 30.288C11.9466 30.5657 11.0999 30.7045 10.1143 30.7045C9.99455 30.7045 9.88021 30.7018 9.77131 30.6964C9.65696 30.6964 9.53717 30.6937 9.41193 30.6882V27.9684C9.5045 27.9738 9.58617 27.9766 9.65696 27.9766C9.7223 27.982 9.79309 27.9847 9.86932 27.9847C10.4302 27.9847 10.8222 27.8649 11.0455 27.6254C11.2741 27.3912 11.3885 27.0373 11.3885 26.5636V13.4545ZM13.12 11.8374C12.6082 11.8374 12.1671 11.6658 11.7969 11.3228C11.4266 10.9743 11.2415 10.5578 11.2415 10.0732C11.2415 9.59399 11.4266 9.18288 11.7969 8.83984C12.1671 8.49136 12.6082 8.31712 13.12 8.31712C13.6428 8.31712 14.0865 8.49136 14.4513 8.83984C14.8216 9.18288 15.0067 9.59399 15.0067 10.0732C15.0067 10.5578 14.8216 10.9743 14.4513 11.3228C14.0865 11.6658 13.6428 11.8374 13.12 11.8374ZM24.4015 13.4545V16.0682H16.6586V13.4545H24.4015ZM18.431 26V12.5479C18.431 11.6386 18.608 10.8845 18.9619 10.2855C19.3213 9.68655 19.8113 9.23733 20.4321 8.93785C21.0528 8.63837 21.758 8.48864 22.5475 8.48864C23.0811 8.48864 23.5684 8.52947 24.0095 8.61115C24.456 8.69283 24.7881 8.76633 25.0059 8.83168L24.3852 11.4453C24.2491 11.4018 24.0803 11.3609 23.8788 11.3228C23.6828 11.2847 23.4813 11.2656 23.2744 11.2656C22.7626 11.2656 22.4059 11.3854 22.2045 11.625C22.003 11.8591 21.9023 12.1886 21.9023 12.6133V26H18.431Z" fill="white"/>
</svg>
