<svg width="28" height="26" viewBox="0 0 28 26" fill="none" xmlns="http://www.w3.org/2000/svg">
    <path d="M0.708313 25.0833H5.54165V10.5833H0.708313V25.0833ZM27.2916 11.7916C27.2916 10.4625 26.2041 9.37496 24.875 9.37496H17.2504L18.3983 3.85288L18.4346 3.46621C18.4346 2.97079 18.2291 2.51163 17.9029 2.18538L16.6221 0.916626L8.67123 8.87954C8.22415 9.31454 7.95831 9.91871 7.95831 10.5833V22.6666C7.95831 23.9958 9.04581 25.0833 10.375 25.0833H21.25C22.2529 25.0833 23.1108 24.4791 23.4733 23.6091L27.1225 15.0904C27.2312 14.8125 27.2916 14.5225 27.2916 14.2083V11.7916Z" fill="white"/>
    </svg>
    