<svg width="54" height="54" viewBox="0 0 54 54" fill="none" xmlns="http://www.w3.org/2000/svg">
<path fill-rule="evenodd" clip-rule="evenodd" d="M10.5 11.875C10.1353 11.875 9.78559 12.0199 9.52773 12.2777C9.26987 12.5356 9.125 12.8853 9.125 13.25V16C9.125 16.3647 9.26987 16.7144 9.52773 16.9723C9.78559 17.2301 10.1353 17.375 10.5 17.375H13.25C13.6147 17.375 13.9644 17.2301 14.2223 16.9723C14.4801 16.7144 14.625 16.3647 14.625 16V13.25C14.625 12.8853 14.4801 12.5356 14.2223 12.2777C13.9644 12.0199 13.6147 11.875 13.25 11.875H10.5ZM13.25 13.25H10.5V16H13.25V13.25Z" fill="#FC7729"/>
<path d="M18.75 14.625C18.75 14.2603 18.8949 13.9106 19.1527 13.6527C19.4106 13.3949 19.7603 13.25 20.125 13.25H44.875C45.2397 13.25 45.5894 13.3949 45.8473 13.6527C46.1051 13.9106 46.25 14.2603 46.25 14.625C46.25 14.9897 46.1051 15.3394 45.8473 15.5973C45.5894 15.8551 45.2397 16 44.875 16H20.125C19.7603 16 19.4106 15.8551 19.1527 15.5973C18.8949 15.3394 18.75 14.9897 18.75 14.625ZM20.125 24.25C19.7603 24.25 19.4106 24.3949 19.1527 24.6527C18.8949 24.9106 18.75 25.2603 18.75 25.625C18.75 25.9897 18.8949 26.3394 19.1527 26.5973C19.4106 26.8551 19.7603 27 20.125 27H44.875C45.2397 27 45.5894 26.8551 45.8473 26.5973C46.1051 26.3394 46.25 25.9897 46.25 25.625C46.25 25.2603 46.1051 24.9106 45.8473 24.6527C45.5894 24.3949 45.2397 24.25 44.875 24.25H20.125ZM20.125 35.25C19.7603 35.25 19.4106 35.3949 19.1527 35.6527C18.8949 35.9106 18.75 36.2603 18.75 36.625C18.75 36.9897 18.8949 37.3394 19.1527 37.5973C19.4106 37.8551 19.7603 38 20.125 38H44.875C45.2397 38 45.5894 37.8551 45.8473 37.5973C46.1051 37.3394 46.25 36.9897 46.25 36.625C46.25 36.2603 46.1051 35.9106 45.8473 35.6527C45.5894 35.3949 45.2397 35.25 44.875 35.25H20.125Z" fill="#FC7729"/>
<path fill-rule="evenodd" clip-rule="evenodd" d="M9.125 24.25C9.125 23.8853 9.26987 23.5356 9.52773 23.2777C9.78559 23.0199 10.1353 22.875 10.5 22.875H13.25C13.6147 22.875 13.9644 23.0199 14.2223 23.2777C14.4801 23.5356 14.625 23.8853 14.625 24.25V27C14.625 27.3647 14.4801 27.7144 14.2223 27.9723C13.9644 28.2301 13.6147 28.375 13.25 28.375H10.5C10.1353 28.375 9.78559 28.2301 9.52773 27.9723C9.26987 27.7144 9.125 27.3647 9.125 27V24.25ZM10.5 24.25H13.25V27H10.5V24.25ZM10.5 33.875C10.1353 33.875 9.78559 34.0199 9.52773 34.2777C9.26987 34.5356 9.125 34.8853 9.125 35.25V38C9.125 38.3647 9.26987 38.7144 9.52773 38.9723C9.78559 39.2301 10.1353 39.375 10.5 39.375H13.25C13.6147 39.375 13.9644 39.2301 14.2223 38.9723C14.4801 38.7144 14.625 38.3647 14.625 38V35.25C14.625 34.8853 14.4801 34.5356 14.2223 34.2777C13.9644 34.0199 13.6147 33.875 13.25 33.875H10.5ZM13.25 35.25H10.5V38H13.25V35.25Z" fill="#FC7729"/>
<rect x="1" y="1" width="52" height="52" rx="9" stroke="#FC7729" stroke-width="2"/>
</svg>
