<svg width="207" height="32" viewBox="0 0 207 32" fill="none" xmlns="http://www.w3.org/2000/svg">
<path d="M4.21933 32C3.3989 32 2.62536 31.9123 1.8987 31.7369C1.1486 31.5834 0.515696 31.3313 0 30.9805L1.2658 27.9219C1.94558 28.3823 2.80117 28.6125 3.83256 28.6125C4.62954 28.6125 5.25072 28.3714 5.69609 27.889C6.14147 27.4286 6.36415 26.7379 6.36415 25.8171V7.82734H10.7593V25.7184C10.7593 27.6478 10.185 29.1716 9.0364 30.2898C7.91124 31.4299 6.30555 32 4.21933 32ZM8.54414 4.9332C7.72372 4.9332 7.04394 4.69202 6.5048 4.20966C5.9891 3.7273 5.73126 3.14628 5.73126 2.4666C5.73126 1.76499 5.9891 1.18397 6.5048 0.723534C7.04394 0.241178 7.72372 0 8.54414 0C9.36457 0 10.0326 0.230216 10.5483 0.690646C11.0875 1.12915 11.357 1.68825 11.357 2.36793C11.357 3.09147 11.0992 3.70538 10.5835 4.20966C10.0678 4.69202 9.38801 4.9332 8.54414 4.9332Z" fill="white"/>
<path d="M25.3484 25.6197C23.2622 25.6197 21.4338 25.236 19.8633 24.4687C18.3162 23.6793 17.109 22.605 16.2417 21.2456C15.3978 19.8863 14.9759 18.3405 14.9759 16.6084C14.9759 14.8544 15.3861 13.3087 16.2065 11.9712C17.0504 10.6119 18.199 9.54848 19.6523 8.78109C21.1291 8.0137 22.8051 7.63001 24.6803 7.63001C26.5087 7.63001 28.1378 8.00274 29.5677 8.7482C30.9976 9.49366 32.1228 10.5461 32.9432 11.9054C33.7636 13.2648 34.1738 14.8654 34.1738 16.7071C34.1738 16.8825 34.1621 17.0798 34.1387 17.2991C34.1387 17.5183 34.1269 17.7266 34.1035 17.9239H18.4568V15.1942H31.7829L30.06 16.0493C30.0834 15.0408 29.8607 14.1528 29.3919 13.3854C28.9231 12.618 28.2785 12.0151 27.458 11.5766C26.6611 11.1381 25.7352 10.9188 24.6803 10.9188C23.6021 10.9188 22.6527 11.1381 21.8323 11.5766C21.0353 12.0151 20.4024 12.629 19.9336 13.4183C19.4882 14.1857 19.2655 15.0956 19.2655 16.148V16.8058C19.2655 17.8582 19.5234 18.79 20.0391 19.6012C20.5548 20.4125 21.2814 21.0373 22.2191 21.4758C23.1567 21.9144 24.235 22.1336 25.4539 22.1336C26.5087 22.1336 27.4581 21.9801 28.3019 21.6732C29.1458 21.3662 29.8959 20.8839 30.5522 20.2261L32.908 22.7585C32.0642 23.6793 30.9976 24.3919 29.7084 24.8962C28.4426 25.3786 26.9892 25.6197 25.3484 25.6197Z" fill="white"/>
<path d="M45.463 25.6197C43.4002 25.6197 41.8062 25.1264 40.6811 24.1398C39.5559 23.1312 38.9934 21.6513 38.9934 19.6999V3.94656H43.3885V19.6012C43.3885 20.4344 43.6112 21.0812 44.0565 21.5416C44.5254 22.0021 45.17 22.2323 45.9904 22.2323C46.9749 22.2323 47.7953 21.9911 48.4517 21.5087L49.6823 24.4358C49.1666 24.8304 48.5337 25.1264 47.7836 25.3237C47.0335 25.5211 46.26 25.6197 45.463 25.6197ZM35.8992 11.2477V7.95889H48.4165V11.2477H35.8992Z" fill="white"/>
<path d="M52.0052 17.9568V14.5365H61.6744V17.9568H52.0052Z" fill="white"/>
<path d="M67.4244 25.3895V6.8407C67.4244 4.99897 67.9987 3.52998 69.1473 2.43371C70.3193 1.31552 71.9836 0.756424 74.1401 0.756424C74.9137 0.756424 75.6404 0.833162 76.3201 0.986638C77.0234 1.14012 77.6094 1.38129 78.0782 1.71017L76.8827 4.80164C76.5545 4.56047 76.1795 4.38506 75.7576 4.27544C75.3356 4.14389 74.902 4.07811 74.4566 4.07811C73.5424 4.07811 72.8509 4.31929 72.3821 4.80164C71.9133 5.26208 71.6789 5.96369 71.6789 6.90647V8.87975L71.8195 10.7215V25.3895H67.4244ZM64.3302 11.2477V7.95889H76.8475V11.2477H64.3302ZM79.9417 25.3895V0.986638H84.3369V25.3895H79.9417Z" fill="white"/>
<path d="M101.675 25.3895V21.8376L101.429 21.0812V14.8654C101.429 13.6595 101.042 12.7276 100.269 12.0699C99.4951 11.3902 98.3231 11.0504 96.7526 11.0504C95.6977 11.0504 94.6546 11.2038 93.6232 11.5108C92.6153 11.8177 91.7597 12.2453 91.0565 12.7934L89.3336 9.80062C90.3415 9.07708 91.537 8.53991 92.92 8.18911C94.3264 7.81638 95.7798 7.63001 97.28 7.63001C99.9991 7.63001 102.097 8.24392 103.574 9.47174C105.074 10.6776 105.824 12.5522 105.824 15.0956V25.3895H101.675ZM95.7681 25.6197C94.3616 25.6197 93.131 25.4005 92.0761 24.962C91.0213 24.5015 90.2009 23.8767 89.6149 23.0874C89.0523 22.2761 88.771 21.3662 88.771 20.3577C88.771 19.371 89.0171 18.483 89.5094 17.6937C90.0251 16.9044 90.8572 16.2795 92.0058 15.8191C93.1544 15.3587 94.6781 15.1285 96.5768 15.1285H102.027V17.8582H96.8932C95.393 17.8582 94.3851 18.0884 93.8694 18.5488C93.3537 18.9873 93.0958 19.5355 93.0958 20.1932C93.0958 20.9387 93.4123 21.5307 94.0452 21.9692C94.6781 22.4077 95.5571 22.6269 96.6822 22.6269C97.7605 22.6269 98.7216 22.3967 99.5655 21.9363C100.433 21.4759 101.054 20.7962 101.429 19.8972L102.167 22.3638C101.745 23.3943 100.984 24.1946 99.8819 24.7646C98.8036 25.3347 97.4323 25.6197 95.7681 25.6197Z" fill="white"/>
<path d="M118.532 25.6197C116.469 25.6197 114.875 25.1264 113.75 24.1398C112.625 23.1312 112.062 21.6513 112.062 19.6999V3.94656H116.458V19.6012C116.458 20.4344 116.68 21.0812 117.126 21.5416C117.594 22.0021 118.239 22.2323 119.06 22.2323C120.044 22.2323 120.864 21.9911 121.521 21.5087L122.751 24.4358C122.236 24.8304 121.603 25.1264 120.853 25.3237C120.103 25.5211 119.329 25.6197 118.532 25.6197ZM108.968 11.2477V7.95889H121.486V11.2477H108.968Z" fill="white"/>
<path d="M128.117 25.6197C127.32 25.6197 126.64 25.3676 126.077 24.8633C125.515 24.3371 125.234 23.6793 125.234 22.89C125.234 22.0569 125.515 21.3991 126.077 20.9168C126.64 20.4125 127.32 20.1603 128.117 20.1603C128.914 20.1603 129.594 20.4125 130.156 20.9168C130.719 21.3991 131 22.0569 131 22.89C131 23.6793 130.719 24.3371 130.156 24.8633C129.594 25.3676 128.914 25.6197 128.117 25.6197Z" fill="white"/>
<path d="M141.193 25C139.218 25 137.454 24.6161 135.903 23.8483C134.374 23.0585 133.175 21.9835 132.305 20.6234C131.435 19.2633 131 17.7166 131 15.9835C131 14.2285 131.435 12.6819 132.305 11.3437C133.175 9.98355 134.374 8.91956 135.903 8.15174C137.454 7.38391 139.218 7 141.193 7C143.027 7 144.638 7.35101 146.025 8.05302C147.436 8.73309 148.506 9.74223 149.235 11.0804L145.849 12.9232C145.285 12.0896 144.591 11.4753 143.768 11.0804C142.968 10.6856 142.098 10.4881 141.158 10.4881C140.076 10.4881 139.1 10.7075 138.23 11.1463C137.36 11.585 136.679 12.2212 136.185 13.0548C135.691 13.8665 135.444 14.8428 135.444 15.9835C135.444 17.1243 135.691 18.1115 136.185 18.9452C136.679 19.7569 137.36 20.3821 138.23 20.8208C139.1 21.2596 140.076 21.479 141.158 21.479C142.098 21.479 142.968 21.2815 143.768 20.8867C144.591 20.4918 145.285 19.8775 145.849 19.0439L149.235 20.8867C148.506 22.2029 147.436 23.223 146.025 23.947C144.638 24.649 143.027 25 141.193 25Z" fill="#ED6616"/>
<path d="M161.235 25C159.307 25 157.591 24.6161 156.086 23.8483C154.581 23.0585 153.394 21.9835 152.524 20.6234C151.654 19.2633 151.219 17.7166 151.219 15.9835C151.219 14.2285 151.654 12.6819 152.524 11.3437C153.394 9.98355 154.581 8.91956 156.086 8.15174C157.591 7.38391 159.307 7 161.235 7C163.187 7 164.915 7.38391 166.42 8.15174C167.949 8.91956 169.136 9.97258 169.982 11.3108C170.852 12.649 171.287 14.2066 171.287 15.9835C171.287 17.7166 170.852 19.2633 169.982 20.6234C169.136 21.9835 167.949 23.0585 166.42 23.8483C164.915 24.6161 163.187 25 161.235 25ZM161.235 21.479C162.317 21.479 163.281 21.2596 164.128 20.8208C164.974 20.3821 165.632 19.7459 166.103 18.9122C166.597 18.0786 166.843 17.1024 166.843 15.9835C166.843 14.8428 166.597 13.8665 166.103 13.0548C165.632 12.2212 164.974 11.585 164.128 11.1463C163.281 10.7075 162.329 10.4881 161.271 10.4881C160.189 10.4881 159.225 10.7075 158.378 11.1463C157.555 11.585 156.897 12.2212 156.403 13.0548C155.91 13.8665 155.663 14.8428 155.663 15.9835C155.663 17.1024 155.91 18.0786 156.403 18.9122C156.897 19.7459 157.555 20.3821 158.378 20.8208C159.225 21.2596 160.177 21.479 161.235 21.479Z" fill="#ED6616"/>
<path d="M199.276 7C200.781 7 202.109 7.27422 203.261 7.82267C204.437 8.37112 205.354 9.21572 206.012 10.3565C206.671 11.4753 207 12.9232 207 14.7002V24.7697H202.591V15.2267C202.591 13.6691 202.227 12.5064 201.498 11.7386C200.769 10.9707 199.723 10.5868 198.359 10.5868C197.395 10.5868 196.536 10.7843 195.784 11.1792C195.055 11.574 194.479 12.1554 194.056 12.9232C193.656 13.691 193.456 14.6673 193.456 15.8519V24.7697H189.047V15.2267C189.047 13.6691 188.683 12.5064 187.954 11.7386C187.225 10.9707 186.179 10.5868 184.815 10.5868C183.851 10.5868 182.993 10.7843 182.24 11.1792C181.511 11.574 180.935 12.1554 180.512 12.9232C180.112 13.691 179.912 14.6673 179.912 15.8519V24.7697H175.503V7.19744H179.701V11.8702L178.96 10.4881C179.595 9.34735 180.512 8.4808 181.711 7.88848C182.934 7.29616 184.321 7 185.873 7C187.636 7 189.165 7.40585 190.458 8.21755C191.775 9.02925 192.645 10.2578 193.068 11.9031L191.34 11.3437C191.951 10.0274 192.962 8.97441 194.373 8.18464C195.784 7.39488 197.418 7 199.276 7Z" fill="#ED6616"/>
</svg>
