<svg width="70" height="70" viewBox="0 0 70 70" fill="none" xmlns="http://www.w3.org/2000/svg">
<g clip-path="url(#clip0_1_8647)">
<rect width="70" height="70" fill="white"/>
<path d="M32.5407 45.2138C28.6648 44.8222 25.1766 43.8986 22.1867 41.6358C21.8142 41.3553 21.4317 41.0846 21.0944 40.7654C19.7857 39.5566 19.6498 38.1593 20.6917 36.7281C21.5726 35.4999 23.0575 35.1711 24.6078 35.8722C24.9067 36.0137 25.1929 36.1786 25.4635 36.3654C31.0356 40.0692 38.6916 40.1707 44.2889 36.5298C44.827 36.108 45.4486 35.7955 46.1161 35.6111C46.735 35.437 47.397 35.4682 47.9952 35.6998C48.5933 35.9314 49.0928 36.3499 49.4131 36.8876C50.2335 38.1786 50.2184 39.4358 49.2117 40.4366C47.6678 41.9452 45.8009 43.1133 43.7403 43.8599C41.7873 44.5949 39.643 44.9624 37.5239 45.209C37.846 45.5474 37.997 45.7118 38.1984 45.9052C41.0725 48.7 43.9618 51.485 46.8309 54.2894C47.8074 55.2468 48.0138 56.4314 47.4752 57.5435C46.8862 58.7523 45.5675 59.555 44.2789 59.4679C43.4968 59.3923 42.7737 59.0346 42.2554 58.467C40.0859 56.3541 37.8762 54.2798 35.747 52.1281C35.1279 51.4995 34.8259 51.6204 34.2823 52.162C32.0977 54.3378 29.8779 56.4798 27.643 58.6121C26.6414 59.5646 25.4484 59.7387 24.2857 59.1923C23.69 58.9226 23.188 58.4936 22.8398 57.9568C22.4916 57.4199 22.312 56.7979 22.3226 56.1655C22.3878 55.3826 22.7667 54.6546 23.3796 54.1347L31.9064 45.8714C32.0927 45.6877 32.2689 45.4942 32.5407 45.2138Z" fill="#008891"/>
<path d="M34.9084 35.4999C31.7379 35.4709 28.707 34.1375 26.4763 31.7904C24.2457 29.4433 22.9961 26.2728 23 22.97C23.0153 19.6529 24.2925 16.4775 26.5518 14.1399C28.8111 11.8023 31.8681 10.4934 35.0524 10.5C36.6362 10.5091 38.2027 10.8444 39.6616 11.4865C41.1206 12.1286 42.4433 13.0649 43.5536 14.2415C44.6639 15.4181 45.54 16.8118 46.1313 18.3423C46.7226 19.8729 47.0176 21.5102 46.9992 23.16C46.9656 29.9899 41.5418 35.5249 34.9084 35.4999ZM40.8794 22.99C40.8813 22.1864 40.7305 21.3904 40.4358 20.6479C40.1411 19.9053 39.7081 19.2308 39.162 18.6634C38.6159 18.0959 37.9674 17.6466 37.2538 17.3413C36.5403 17.0361 35.7758 16.881 35.0044 16.885C34.2269 16.881 33.4564 17.0382 32.7379 17.3477C32.0193 17.6571 31.3671 18.1126 30.8194 18.6874C30.2716 19.2622 29.8392 19.9449 29.5474 20.6956C29.2556 21.4463 29.1102 22.2501 29.1198 23.06C29.1235 23.8635 29.2799 24.6584 29.5799 25.3987C29.8799 26.139 30.3176 26.8102 30.8677 27.3735C31.4178 27.9368 32.0696 28.3812 32.7853 28.6809C33.501 28.9806 34.2666 29.1298 35.038 29.1199C35.8089 29.1206 36.5724 28.9622 37.2842 28.6538C37.996 28.3455 38.6422 27.8932 39.1853 27.3233C39.7284 26.7533 40.1577 26.077 40.4485 25.3332C40.7393 24.5894 40.8857 23.793 40.8794 22.99Z" fill="#008891"/>
</g>
<defs>
<clipPath id="clip0_1_8647">
<rect width="70" height="70" fill="white"/>
</clipPath>
</defs>
</svg>
