<svg width="79" height="67" viewBox="0 0 79 67" fill="none" xmlns="http://www.w3.org/2000/svg">
<path d="M24.156 11.9V35H17.688V17.081H8.91V35H2.475V11.9H24.156ZM29.0941 11.9H35.5291V25.463L45.0661 11.9H51.2041V35H44.7691V21.47L35.2651 35H29.0941V11.9ZM65.5035 26.156H62.5335V35H56.0325V11.9H62.5335V20.876H65.6685L71.1795 11.9H78.0435L70.8165 23.054L78.1095 35H70.7505L65.5035 26.156Z" fill="#ED6616"/>
<path d="M25.13 55.715C25.82 55.715 26.43 55.845 26.96 56.105C27.5 56.365 27.92 56.735 28.22 57.215C28.52 57.685 28.67 58.235 28.67 58.865C28.67 59.505 28.515 60.07 28.205 60.56C27.895 61.05 27.465 61.43 26.915 61.7C26.375 61.96 25.765 62.09 25.085 62.09C23.695 62.09 22.63 61.635 21.89 60.725C21.15 59.805 20.78 58.51 20.78 56.84C20.78 55.67 20.98 54.68 21.38 53.87C21.78 53.06 22.34 52.45 23.06 52.04C23.78 51.62 24.62 51.41 25.58 51.41C26.62 51.41 27.45 51.6 28.07 51.98L27.635 52.85C27.135 52.52 26.455 52.355 25.595 52.355C24.435 52.355 23.525 52.725 22.865 53.465C22.205 54.195 21.875 55.26 21.875 56.66C21.875 56.91 21.89 57.195 21.92 57.515C22.18 56.945 22.595 56.505 23.165 56.195C23.735 55.875 24.39 55.715 25.13 55.715ZM25.04 61.175C25.8 61.175 26.415 60.97 26.885 60.56C27.365 60.14 27.605 59.585 27.605 58.895C27.605 58.205 27.365 57.655 26.885 57.245C26.415 56.835 25.775 56.63 24.965 56.63C24.435 56.63 23.965 56.73 23.555 56.93C23.155 57.13 22.84 57.405 22.61 57.755C22.38 58.105 22.265 58.495 22.265 58.925C22.265 59.325 22.37 59.695 22.58 60.035C22.8 60.375 23.12 60.65 23.54 60.86C23.96 61.07 24.46 61.175 25.04 61.175ZM43.3714 57.185H41.1964V62H40.1164V57.185H37.9264L34.7164 62H33.4264L37.0264 56.585L33.6964 51.5H34.8964L37.9114 56.21H40.1164V51.5H41.1964V56.21H43.3714L46.4014 51.5H47.6014L44.2714 56.585L47.8714 62H46.5814L43.3714 57.185ZM53.1113 57.185H50.7113V62H49.6313V51.5H50.7113V56.21H53.1113L56.6663 51.5H57.8663L53.9663 56.6L58.0913 62H56.8163L53.1113 57.185Z" fill="#242424"/>
</svg>
