<svg width="28" height="34" viewBox="0 0 28 34" fill="none" xmlns="http://www.w3.org/2000/svg">
<path fill-rule="evenodd" clip-rule="evenodd" d="M27.068 27.322C27.068 32.8153 19.5346 33.4503 13.8696 33.4503L13.4642 33.45C9.85498 33.4412 0.667969 33.2134 0.667969 27.2887C0.667969 21.9074 7.89856 21.1883 13.5204 21.1612L14.275 21.1607C17.884 21.1695 27.068 21.3973 27.068 27.322ZM13.8696 23.6603C6.76797 23.6603 3.16797 24.8803 3.16797 27.2887C3.16797 29.7187 6.76797 30.9503 13.8696 30.9503C20.9696 30.9503 24.568 29.7303 24.568 27.322C24.568 24.892 20.9696 23.6603 13.8696 23.6603ZM13.8696 0.333008C18.7496 0.333008 22.718 4.30301 22.718 9.18301C22.718 14.063 18.7496 18.0313 13.8696 18.0313H13.8163C8.9463 18.0163 5.0013 14.0447 5.01792 9.17801C5.01792 4.30301 8.98797 0.333008 13.8696 0.333008ZM13.8696 2.71301C10.3013 2.71301 7.39793 5.61467 7.39793 9.18301C7.3863 12.7397 10.268 15.6397 13.8213 15.653L13.8696 16.843V15.653C17.4363 15.653 20.338 12.7497 20.338 9.18301C20.338 5.61467 17.4363 2.71301 13.8696 2.71301Z" fill="white"/>
</svg>
