<svg width="21" height="21" viewBox="0 0 21 21" fill="none" xmlns="http://www.w3.org/2000/svg">
<path fill-rule="evenodd" clip-rule="evenodd" d="M9.739 0.138672C15.109 0.138672 19.477 4.50667 19.477 9.87667C19.477 12.4102 18.5047 14.7209 16.9136 16.4552L20.0444 19.5794C20.3374 19.8724 20.3384 20.3464 20.0454 20.6394C19.8994 20.7874 19.7064 20.8604 19.5144 20.8604C19.3234 20.8604 19.1314 20.7874 18.9844 20.6414L15.8159 17.4817C14.1491 18.8165 12.0357 19.6157 9.739 19.6157C4.369 19.6157 0 15.2467 0 9.87667C0 4.50667 4.369 0.138672 9.739 0.138672ZM9.739 1.63867C5.196 1.63867 1.5 5.33367 1.5 9.87667C1.5 14.4197 5.196 18.1157 9.739 18.1157C14.281 18.1157 17.977 14.4197 17.977 9.87667C17.977 5.33367 14.281 1.63867 9.739 1.63867Z" fill="#242424"/>
</svg>
