<svg width="54" height="54" viewBox="0 0 54 54" fill="none" xmlns="http://www.w3.org/2000/svg">
    <path
        d="M34.1325 18.3161H35.6325V16.8161V12.5754C35.6325 12.5231 35.6846 12.4243 35.821 12.4243H38.5382C38.6752 12.4243 38.7286 12.5239 38.729 12.5768C38.729 12.577 38.729 12.5771 38.729 12.5773L38.729 19.6516C38.729 19.8058 38.5915 19.9892 38.3487 19.9892H34.5195H32.8518L33.0279 21.6475L34.6799 37.2052H19.3216L21.05 21.6549L21.2352 19.9892H19.5592H15.6513C15.409 19.9892 15.271 19.8052 15.271 19.6516V12.5754C15.271 12.5231 15.323 12.4243 15.4595 12.4243H18.1767C18.3125 12.4243 18.3652 12.5235 18.3652 12.5754V16.8161V18.3161H19.8652H23.9706H25.4706V16.8161V12.5754C25.4706 12.5231 25.5226 12.4243 25.6591 12.4243H28.3375C28.4733 12.4243 28.526 12.5235 28.526 12.5754V16.8161V18.3161H30.026H34.1325Z"
        stroke="#008891" stroke-width="3" />
    <path
        d="M19.1474 41.4692C19.1475 41.4692 19.1477 41.4694 19.1482 41.4699L19.1474 41.4692ZM19.1482 42.0358C19.1477 42.0363 19.1475 42.0365 19.1474 42.0365L19.1482 42.0358ZM34.8518 42.0357C34.8524 42.0362 34.8526 42.0365 34.8526 42.0365L34.8518 42.0357ZM34.8516 41.4698C34.8522 41.4692 34.8525 41.469 34.8525 41.469L34.8516 41.4698Z"
        stroke="#008891" stroke-width="3" />
    <rect x="1" y="1" width="52" height="52" rx="9" stroke="#008891" stroke-width="2" />
</svg>
    