<svg width="36" height="36" viewBox="0 0 36 36" fill="none" xmlns="http://www.w3.org/2000/svg">
    <rect x="1" y="1" width="34" height="34" rx="9" stroke="#008891" stroke-width="2"/>
    <path d="M25.125 23.0133C24.2067 23.0133 23.385 23.3758 22.7567 23.9438L14.1413 18.9292C14.2017 18.6512 14.25 18.3733 14.25 18.0833C14.25 17.7933 14.2017 17.5154 14.1413 17.2375L22.66 12.2713C23.3125 12.8754 24.1704 13.25 25.125 13.25C27.1308 13.25 28.75 11.6308 28.75 9.625C28.75 7.61917 27.1308 6 25.125 6C23.1192 6 21.5 7.61917 21.5 9.625C21.5 9.915 21.5483 10.1929 21.6088 10.4708L13.09 15.4371C12.4375 14.8329 11.5796 14.4583 10.625 14.4583C8.61917 14.4583 7 16.0775 7 18.0833C7 20.0892 8.61917 21.7083 10.625 21.7083C11.5796 21.7083 12.4375 21.3337 13.09 20.7296L21.6933 25.7563C21.6329 26.01 21.5967 26.2758 21.5967 26.5417C21.5967 28.4871 23.1796 30.07 25.125 30.07C27.0704 30.07 28.6533 28.4871 28.6533 26.5417C28.6533 24.5963 27.0704 23.0133 25.125 23.0133Z" fill="#008891"/>
    </svg>
    