<svg width="24" height="43" viewBox="0 0 24 43" fill="none" xmlns="http://www.w3.org/2000/svg">
    <path d="M16.1602 10.0005C15.1519 11.7421 15.7569 13.9971 17.4985 15.0055C19.2402 16.0138 21.4952 15.4088 22.5035 13.6671C23.5119 11.9255 22.9069 9.67048 21.1652 8.66214C19.4235 7.65381 17.1685 8.25881 16.1602 10.0005Z" fill="#008891"/>
    <path d="M19.0399 18.0847C19.0399 18.0847 16.0516 16.3614 14.2732 15.3347C9.90989 12.8047 8.40656 7.19471 10.9366 2.83138L7.76489 0.998047C4.84989 6.02138 5.76656 12.218 9.54323 16.233L0.101562 32.5864L3.27323 34.4197L6.02323 29.653L9.1949 31.4864L3.6949 41.0197L6.86656 42.853L18.3982 22.888C20.4882 25.7297 20.8366 29.653 18.9666 32.898L22.1382 34.7314C25.0716 29.6897 24.4849 22.668 19.0399 18.0847Z" fill="#008891"/>
    <path d="M13.3744 5.96668C14.6944 6.71835 16.3627 6.27835 17.1327 4.95835C17.8844 3.63835 17.4444 1.97002 16.1244 1.20002C14.8044 0.448351 13.136 0.888351 12.366 2.20835C11.6144 3.52835 12.0544 5.21502 13.3744 5.96668Z" fill="#008891"/>
    </svg>
    