<svg width="70" height="70" viewBox="0 0 70 70" fill="none" xmlns="http://www.w3.org/2000/svg">
<g clip-path="url(#clip0_1_8658)">
<rect width="70" height="70" fill="white"/>
<path d="M53 21.68L49.3265 20.94L51.5306 17.24C51.5306 17.24 45.9697 18.7207 45.969 18.72C44.4555 17.2622 42.4057 16.5 40.1429 16.5C35.4107 16.5 31.6939 20.0187 31.6939 24.64C31.6939 27.341 32.9429 29.746 34.8898 31.3H31.6939C28.0424 31.3 24.8465 30.2418 22.4367 29.08C19.5053 27.6814 18.7603 27.1471 17.7633 26.2021C17.7266 26.1674 17.6862 26.12 17.5789 26.12C17.3615 26.12 17 26.3487 17 28.34C17 30.9448 18.8367 35 21.4082 35C21.8071 35 22.1429 35.3278 22.1429 35.74C22.1429 36.147 21.8122 36.48 21.4082 36.48C19.5714 36.48 17 35 17 35C17 40.18 19.4781 41.66 22.8776 41.66C23.2816 41.66 23.6122 41.993 23.6122 42.4C23.6122 42.807 23.2816 43.14 22.8776 43.14C21.8225 43.14 20.0402 42.9639 19.2041 42.4C19.2041 45.9624 22.8864 47.58 25.8163 47.58C26.2204 47.58 26.551 47.913 26.551 48.32C26.551 48.7129 26.241 49.06 25.8163 49.06C25.6775 49.06 22.8776 49.06 22.8776 49.06C22.8776 49.06 22.1429 53.5 33.1633 53.5C43.9082 53.5 53 47.1826 53 36.48C53 32.1754 51.3007 28.2882 48.5918 25.38L53 21.68Z" fill="#008891"/>
</g>
<defs>
<clipPath id="clip0_1_8658">
<rect width="70" height="70" fill="white"/>
</clipPath>
</defs>
</svg>
