<svg width="20" height="26" viewBox="0 0 20 26" fill="none" xmlns="http://www.w3.org/2000/svg">
    <path fill-rule="evenodd" clip-rule="evenodd"
        d="M19.5207 20.969C19.5207 25.1692 13.9527 25.6547 9.76571 25.6547L9.46609 25.6544C6.79846 25.6477 0.00830078 25.4735 0.00830078 20.9436C0.00830078 16.8291 5.35246 16.2793 9.50762 16.2585L10.0653 16.2582C12.7328 16.2649 19.5207 16.4391 19.5207 20.969ZM9.76571 18.1694C4.51684 18.1694 1.85606 19.1022 1.85606 20.9436C1.85606 22.8015 4.51684 23.7432 9.76571 23.7432C15.0134 23.7432 17.6729 22.8104 17.6729 20.969C17.6729 19.1111 15.0134 18.1694 9.76571 18.1694ZM9.76571 0.333496C13.3725 0.333496 16.3056 3.36892 16.3056 7.10013C16.3056 10.8313 13.3725 13.8655 9.76571 13.8655H9.7263C6.12686 13.854 3.21109 10.8173 3.22337 7.0963C3.22337 3.36892 6.15765 0.333496 9.76571 0.333496ZM9.76571 2.15322C7.12834 2.15322 4.98245 4.37181 4.98245 7.10013C4.97385 9.81952 7.10371 12.0368 9.72999 12.047L9.76571 12.9569V12.047C12.4019 12.047 14.5465 9.82717 14.5465 7.10013C14.5465 4.37181 12.4019 2.15322 9.76571 2.15322Z"
        fill="white" />
</svg>
    