<svg width="32" height="30" viewBox="0 0 32 30" fill="none" xmlns="http://www.w3.org/2000/svg">
<path d="M15.2606 15.6731L15.2615 15.6741C15.5318 15.9701 15.8716 16.0561 16.0734 16.0849C16.286 16.1151 16.4928 16.1028 16.6531 16.085C16.7447 16.0748 16.8401 16.0603 16.9355 16.0435C16.6874 16.2448 16.3639 16.3692 16 16.3692C15.1718 16.3692 14.5547 15.7262 14.5547 14.9998C14.5547 14.6367 14.7089 14.2944 14.9666 14.0429C14.9501 14.1214 14.9356 14.2002 14.9243 14.277C14.8998 14.4438 14.8815 14.656 14.9088 14.8788C14.9363 15.1027 15.0193 15.4081 15.2606 15.6731ZM18.1386 15.8044C18.155 15.804 18.1525 15.8055 18.1357 15.8045C18.1367 15.8044 18.1377 15.8044 18.1386 15.8044ZM6.06387 15.0451C6.0554 15.0288 6.04774 15.0136 6.04083 14.9996C6.04777 14.9854 6.05547 14.9701 6.06399 14.9537C6.14985 14.7885 6.29296 14.5594 6.50099 14.2847C6.91552 13.7374 7.55208 13.0564 8.40677 12.393C9.488 11.5537 10.9055 10.7517 12.6528 10.2775C11.1223 11.3087 10.1105 13.0297 10.1105 14.9998C10.1105 16.9716 11.1238 18.6927 12.6561 19.7229C10.9074 19.2487 9.48877 18.4459 8.40685 17.6059C7.55213 16.9423 6.91553 16.2612 6.50094 15.714C6.29289 15.4393 6.14974 15.2103 6.06387 15.0451ZM5.98504 15.1322C5.98493 15.1323 5.98553 15.1298 5.98717 15.1247C5.98597 15.1296 5.98515 15.1322 5.98504 15.1322ZM21.8884 14.9998C21.8884 13.0299 20.8771 11.3087 19.3469 10.2775C21.094 10.7517 22.5115 11.5537 23.5928 12.393C24.4476 13.0565 25.0843 13.7375 25.4989 14.2848C25.707 14.5595 25.8501 14.7886 25.936 14.9538C25.9445 14.9702 25.9522 14.9854 25.9591 14.9996C25.9522 15.0136 25.9446 15.0288 25.9361 15.045C25.8502 15.2102 25.7071 15.4392 25.499 15.7139C25.0843 16.2612 24.4476 16.9423 23.5928 17.6059C22.5108 18.4459 21.0922 19.2487 19.3436 19.7229C20.8756 18.6927 21.8884 16.9715 21.8884 14.9998ZM26.015 15.1323C26.0149 15.1323 26.0141 15.1297 26.0128 15.1248C26.0145 15.1299 26.0151 15.1323 26.015 15.1323ZM26.0129 14.8742C26.0142 14.8693 26.015 14.8667 26.0151 14.8667C26.0152 14.8667 26.0146 14.8692 26.0129 14.8742ZM5.98707 14.8743C5.98542 14.8692 5.98481 14.8667 5.98492 14.8668C5.98503 14.8668 5.98586 14.8694 5.98707 14.8743Z" stroke="#BDBDBD" stroke-width="2"/>
</svg>
