<svg width="70" height="70" viewBox="0 0 70 70" fill="none" xmlns="http://www.w3.org/2000/svg">
<g clip-path="url(#clip0_1_8662)">
<rect width="70" height="70" fill="white"/>
<path d="M49.9364 19L44.4706 30.0012C44.2769 30.3901 43.8818 30.6364 43.4492 30.6364C42.6696 30.6364 42.2273 30.0875 42.2273 29.4863V19C38.3727 19 33.5545 19 30.6636 19V38.1932C30.6636 38.8274 30.1597 39.3636 29.5555 39.3636C25.7472 39.3636 20.0636 33.7675 20.0636 26.7576V19C18.1364 19 9.46364 19 8.5 19V28.5156C8.5 40.8725 18.4071 50.9011 30.6636 51C30.8727 51 42.4537 51 42.2273 51C42.2273 50.0303 42.2273 39.4354 42.2273 39.4354C42.2273 38.8604 42.6908 38.3939 43.2622 38.3939C43.8057 38.3939 44.1411 38.6082 44.3213 38.9922L49.9364 51H61.5L53.7909 34.5152L61.5 19C59.6074 19 51.8771 19 49.9364 19Z" fill="#008891"/>
</g>
<defs>
<clipPath id="clip0_1_8662">
<rect width="70" height="70" fill="white"/>
</clipPath>
</defs>
</svg>
