<svg width="38" height="32" viewBox="0 0 38 32" fill="none" xmlns="http://www.w3.org/2000/svg">
    <path d="M28.1641 25.1483C25.6891 25.1483 24.1307 25.9183 22.7557 26.615C21.5641 27.22 20.5924 27.715 18.9974 27.715C17.3474 27.715 16.4307 27.2566 15.2391 26.615C13.8641 25.9183 12.3607 25.1483 9.83073 25.1483C7.30073 25.1483 5.7974 25.9183 4.4224 26.615C3.23073 27.22 2.2774 27.715 0.664062 27.715V31.29C3.13906 31.29 4.6974 30.52 6.0724 29.8233C7.26406 29.2183 8.2174 28.7233 9.83073 28.7233C11.4441 28.7233 12.3974 29.1816 13.5891 29.8233C14.9641 30.52 16.4674 31.29 18.9974 31.29C21.5274 31.29 23.0307 30.52 24.4057 29.8233C25.5974 29.2183 26.5691 28.7233 28.1641 28.7233C29.8141 28.7233 30.7307 29.1816 31.9224 29.8233C33.2974 30.52 34.8191 31.29 37.3307 31.29V27.715C35.6807 27.715 34.7641 27.2566 33.5724 26.615C32.1974 25.9183 30.6391 25.1483 28.1641 25.1483ZM28.1641 16.99C25.6891 16.99 24.1307 17.7783 22.7557 18.4566C21.5641 19.0433 20.5924 19.5566 18.9974 19.5566C17.3474 19.5566 16.4307 19.0983 15.2391 18.4566C13.8641 17.76 12.3607 16.99 9.83073 16.99C7.30073 16.99 5.7974 17.7783 4.4224 18.4566C3.23073 19.0433 2.2774 19.5566 0.664062 19.5566V23.1316C3.13906 23.1316 4.6974 22.3433 6.0724 21.665C7.26406 21.0233 8.18073 20.565 9.83073 20.565C11.4807 20.565 12.3974 21.0233 13.5891 21.665C14.9641 22.3616 16.4674 23.1316 18.9974 23.1316C21.5274 23.1316 23.0307 22.3433 24.4057 21.665C25.5974 21.0233 26.5141 20.565 28.1641 20.565C29.8141 20.565 30.7307 21.0233 31.9224 21.665C33.2974 22.3616 34.8191 23.1316 37.3307 23.1316V19.5566C35.6807 19.5566 34.7641 19.0983 33.5724 18.4566C32.1974 17.76 30.6391 16.99 28.1641 16.99ZM33.5724 2.17663C32.1974 1.47996 30.6757 0.709961 28.1641 0.709961C25.6524 0.709961 24.1307 1.47996 22.7557 2.17663C21.5641 2.76329 20.5924 3.27663 18.9974 3.27663C17.3474 3.27663 16.4307 2.81829 15.2391 2.17663C13.8641 1.49829 12.3607 0.709961 9.83073 0.709961C7.30073 0.709961 5.7974 1.47996 4.4224 2.17663C3.23073 2.78163 2.2774 3.27663 0.664062 3.27663V6.81496C3.13906 6.81496 4.6974 6.02663 6.0724 5.34829C7.26406 4.74329 8.2174 4.24829 9.83073 4.24829C11.4441 4.24829 12.3974 4.70663 13.5891 5.34829C14.9641 6.04496 16.4674 6.81496 18.9974 6.81496C21.5274 6.81496 23.0307 6.02663 24.4057 5.34829C25.5974 4.76163 26.5691 4.24829 28.1641 4.24829C29.8141 4.24829 30.7307 4.70663 31.9224 5.34829C33.2974 6.04496 34.8191 6.81496 37.3307 6.81496V3.23996C35.6807 3.23996 34.7641 2.78163 33.5724 2.17663ZM28.1641 8.83163C25.6891 8.83163 24.1307 9.61996 22.7557 10.2983C21.5641 10.94 20.6474 11.3983 18.9974 11.3983C17.3474 11.3983 16.4307 10.94 15.2391 10.2983C13.8641 9.60163 12.3607 8.83163 9.83073 8.83163C7.30073 8.83163 5.7974 9.61996 4.4224 10.2983C3.23073 10.94 2.31406 11.3983 0.664062 11.3983V14.9733C3.13906 14.9733 4.6974 14.185 6.0724 13.5066C7.26406 12.92 8.23573 12.4066 9.83073 12.4066C11.4257 12.4066 12.3974 12.865 13.5891 13.5066C14.9641 14.2033 16.4674 14.9733 18.9974 14.9733C21.5274 14.9733 23.0307 14.185 24.4057 13.5066C25.5974 12.92 26.5691 12.4066 28.1641 12.4066C29.8141 12.4066 30.7307 12.865 31.9224 13.5066C33.2974 14.2033 34.8191 14.9733 37.3307 14.9733V11.3983C35.6807 11.3983 34.7641 10.94 33.5724 10.2983C32.1974 9.60163 30.6391 8.83163 28.1641 8.83163Z" fill="#008891"/>
    </svg>
    