<svg width="70" height="70" viewBox="0 0 70 70" fill="none" xmlns="http://www.w3.org/2000/svg">
<g clip-path="url(#clip0_1_8670)">
<rect width="70" height="70" fill="white"/>
<path d="M35 14C23.675 14 14.5 23.3996 14.5 35C14.5 38.9648 15.5824 42.7868 17.452 45.9536L15.3938 52.8584C15.3446 53.0348 15.32 53.2112 15.32 53.3876C15.32 54.3536 16.1072 55.16 17.0494 55.16C17.2142 55.16 17.3856 55.1348 17.5668 55.0844L24.4138 53.0852C27.5044 55.0012 31.1214 56 35 56C46.325 56 55.5 46.6004 55.5 35C55.5 23.3996 46.325 14 35 14ZM36.64 46.76C30.08 46.76 22.7 40.04 22.7 32.48C22.7 23.7944 28.3088 23.2316 32.6466 23.24C33.4994 23.24 34.18 24.0288 34.18 24.9032V30.8C34.18 31.6064 33.36 32.48 32.54 32.48C31.72 32.48 30.9 32.48 30.9 33.32C30.9 34.16 31.5986 34.958 33.36 36.68C34.9229 38.2096 35.9881 39.2344 36.64 39.2C37.205 39.1706 37.46 38.6095 37.46 38.36C37.46 37.52 38.28 36.68 39.1 36.68H45.66C46.48 36.68 47.3 37.52 47.3 38.36V39.8132C47.3082 45.6344 40.289 46.76 36.64 46.76Z" fill="#008891"/>
</g>
<defs>
<clipPath id="clip0_1_8670">
<rect width="70" height="70" fill="white"/>
</clipPath>
</defs>
</svg>
