<svg width="70" height="70" viewBox="0 0 70 70" fill="none" xmlns="http://www.w3.org/2000/svg">
<g clip-path="url(#clip0_1_8653)">
<rect width="70" height="70" fill="white"/>
<path d="M42.7487 40.6888C42.7507 41.2424 42.3024 41.6923 41.7487 41.6923H35.124C34.9642 41.6923 34.8066 41.654 34.6646 41.5805L32.2039 40.3077C29.5889 39.0769 27.5834 37.2747 26.1876 34.9011C24.7917 32.5275 24.0938 29.4835 24.0938 25.7692C24.0938 22.5385 24.5885 19.8352 25.578 17.6593C26.5674 15.4615 27.9721 13.8022 29.792 12.6813C31.6296 11.5604 33.8029 11 36.3119 11H47C47.5523 11 48 11.4477 48 12V58C48 58.5523 47.5523 59 47 59H41.2345C40.6822 59 40.2345 58.5523 40.2345 58V20.011C40.2345 19.4587 39.7867 19.011 39.2345 19.011H36.3384C34.7659 19.011 33.6174 19.6703 32.893 20.989C32.1685 22.3077 31.8063 24.1758 31.8063 26.5934C31.8063 28.3516 31.983 29.7912 32.3364 30.9121C32.6898 32.033 33.211 32.8681 33.9001 33.4176C34.6069 33.9451 35.508 34.2088 36.6035 34.2088H41.7293C42.2802 34.2088 42.7274 34.6544 42.7293 35.2052L42.7487 40.6888ZM36.0404 37.6374C36.7222 37.6374 37.204 38.3046 36.9897 38.9518L30.5757 58.3145C30.4401 58.7237 30.0576 59 29.6264 59H23.3847C22.7029 59 22.221 58.3327 22.4354 57.6856L28.8494 38.3229C28.9849 37.9137 29.3675 37.6374 29.7986 37.6374H36.0404Z" fill="#008891"/>
</g>
<defs>
<clipPath id="clip0_1_8653">
<rect width="70" height="70" fill="white"/>
</clipPath>
</defs>
</svg>
